<?xml version="1.0" encoding="UTF-8"?>
<svg version="1.1" viewBox="0 0 1368 1280" width="1280" height="1280" xmlns="http://www.w3.org/2000/svg">
<path transform="translate(0)" d="m0 0h1368v1280h-1368z" fill="#BABEBF"/>
<path transform="translate(631,29)" d="m0 0h58l27 3 31 5 32 8 36 12 20 8 16 8 21 11 30 19 19 13 10 8 28 24 13 12 7 8 10 11 9 11 11 13 14 19 8 12 11 18 13 23 12 23 9 21 9 24 9 29 9 39 4 25 4 36v65l-5 41-5 25-6 26-15 43-11 25-13 24-12 21-7 10-11 16-9 12-4 5-7 8-29 31-7 7-11 9-10 9-14 10-18 13-21 14-16 9-16 8-16 7-24 9-27 9-35 9-20 4-22 3-32 3h-53l-29-3-37-6-22-6-23-7-28-10-27-12-20-10-13-8-17-11-19-13-17-13-14-12-11-9-23-23-7-8-12-12-20-26-14-19-15-26-14-25-13-31-8-23-6-21-7-32-3-21-4-43v-23l1-31 4-38 5-28 6-27 8-27 7-18 11-26 12-23 10-18 10-17 8-12 10-14 2-3h2l2-4 6-8 12-14 7-8 8-10 3-3h2l2-4 8-8 8-7 28-24 17-13 38-24 18-10 31-15 28-10 35-10 23-5 27-4z" fill="#133840"/>
<path transform="translate(637,54)" d="m0 0h46l31 3 36 6 20 5 21 7 26 10 22 10 19 10 24 14 22 16 18 14 11 10 8 7 11 10v2l4 2 11 12 9 11 8 10 18 24 10 15 9 15 9 16 16 33 11 25 13 38 8 33 4 23v7l-6-4-14-12-13-11-12-11-10-9-11-10-8-7-14-12-20-18-14-13-11-9-9-8-8-5-7-2-12 1-11 4-11 7-10 10-10 15-7 8-8 8-8 11-9 10-5-5-7-10-13-16-7-8-10-9-21-14-21-10-18-6-15-3-11-1h-17l-20 3-24 8-21 10-11 8-9 8-8 10-6 8-2-1v-11l-1-2-4-1-2 7-2 23-3 12-7 13-11 14-9 12-14 18-11 13-1 2h-2l-2 4-7 9-10 11-7 8-7 9-5 6-3 6-2-3-4-11-5-21v-39l4-23 10-29 9-19 8-13 7-10 9-10 6-7 22-18 14-9 16-8 19-6 16-3h29l16 2-1-4-15-5-8-1h-33l-17 4-15 6-12 6-11 7-14 10-14 12-3 3h-2l-2 4-9 11-5 7-18 33-7 18-6 18-3 18-1 10v33l5 21 6 20-1 7-19 19-4-1-11-14-10-14-17-26-11-21-9-26-1-6v-17l3-17 6-21 9-25 8-18 10-19 13-23 9-13 14-18 13-15 11-12 8-8 11-9 18-14 20-14 13-10 10-6 9-2 5 3 7 17 6 9 4 12-7 1-26-3-26-2h-7l20 11 20 8 14 4-2 5-28 6-3 1v3l11-1 10-3 27-1 16-1 9-3 13-3 25-1 46-1 32-7h16l9 4 5 6-4 11 10-6 11-7 8-6 14-9h7l27 8 27 5h13l4-4-12-3-17-8-16-11-12-6 1-3 21-4 9-4 11-7 10-9 1-3-32-1-4-1h-33l-25 4-13 3-1 1 8 5v1h-14l-31-5-27-8-29-10-29-11-10-3 1 4 4 2 10 9 29 19 21 12 10 6 5 4v2l-40 2h-10l2-4 3-1 2-5-13 5-12 4-9 4h-7l-12-11-10-10-10-13-11-12-7-5-6-2-7 1-17 10-19 12-19 14-12 9-13 10-10 9-11 9-14 15-9 11-8 11-10 14-12 19-12 21-6 12-8 20-7 19-6 22-7 35-7 16-10 16-8 10-9 11-10 12-7 8-12 14-7 9h-2l-2 4-10 10-9 11-11 12-8 10-12 13-7 6h-2l-3-15-4-36-1-14v-54l3-31 5-31 7-28 12-36 6-15 12-26 8-16 12-21 9-14 7-11 6-8 22-28 11-13 11-12 8-7 9-9 8-7 10-9 12-9 15-11 11-8 19-12 35-18 21-9 36-13 26-6 35-6z" fill="#BABEBF"/>
<path transform="translate(687,316)" d="m0 0h33l20 4 17 6 15 8 12 9 14 12 14 14 9 13 8 12-3 5-7 9-6 8-12 13-7 8-7 7-1 2h-2l-2 4-12 13-12 14-7 8-15 16-9 11-16 17-4 5-5-2-9-10-11-14-9-12-13-16-11-15-13-18-10-15-10-17-9-17-8-20 1-6 11-16 11-12 12-9 14-8 19-7z" fill="#BABEBF"/>
<path transform="translate(917,321)" d="m0 0h7l10 6 9 8 8 7 17 16 10 9 15 13 10 9 8 7 12 11 8 7 10 9 10 8 14 12 15 14 4 5 1 5v63l-2 26-6 41-3 10-2 2-6-1-6-4v-2l-4-2-10-9-25-25-7-8-6-6v-2l-4-2v-2h-2l-7-8-10-11-10-13-9-11-8-11-10-12-13-17-13-19-30-45-8-16-3-7v-10l3-13 7-12 7-8 12-9z" fill="#BABEBF"/>
<path transform="translate(382,447)" d="m0 0 3 1 8 22 13 27 11 18 14 18 13 17 13 18 12 14 11 13 8 11 13 16 16 20 11 13 9 11 13 16 9 11 12 13 12 14 12 13 9 10 18 18 7 8 23 23 8 7 8 8 16 14 11 9 15 12 14 10 22 14 18 10 17 8 18 7 36 9 3 2-4 1-30-3-24-5-16-5-21-9-29-14-23-12-17-10-22-15-17-12-17-13-19-14-12-10-11-9-13-11-14-11-17-14-10-9-11-9-8-8-8-7-11-10-8-7-13-11-27-27-8-7-36-36-8-10-4-8-1-22v-59l1-46z" fill="#BABEBF"/>
<path transform="translate(592,394)" d="m0 0 3 1 13 29 10 17 13 19 10 14 14 19 12 17 13 16 12 14 6 8 20 26 11 13 9 11 11 13 13 17 18 22 12 14 7 9 9 11 12 14 13 15 7 9 12 13 7 8 38 38 8 7 12 10 14 10 16 11v4l-2 2h-8l-26-10-25-13-20-12-18-12-13-10-11-9-16-13-14-11-24-22-13-12-15-13-8-8-8-7-29-29-8-7-19-19-7-8-11-12-7-8-15-15-7-8-12-14-9-11-7-10-1-2-2-31-1-78z" fill="#BABEBF"/>
<path transform="translate(866,373)" d="m0 0h2l4 8 11 23 9 16 12 18 15 22 14 20 14 18 10 13 14 17 10 11 9 11 12 13 7 8 12 12 8 7 9 9 8 7 12 11 10 9-1 9-7 21-13 30-7 12-4-1-10-8-16-15-8-7-17-16-7-7-7-8-7-6-7-8-17-17-7-8-14-15-9-11-16-17-12-14-9-10-3-6-2-21-1-15v-98l-1-5z" fill="#BABEBF"/>
<path transform="translate(376,1018)" d="m0 0h42l12 3 10 6 8 9 7 14 2 8v7l-4 13-6 10-9 10-10 5-10 3 2 5 6 9 15 24 11 19 8 10 11 11 9 6v2h-15l-15-1-6-2-4-1-9 3-3-1 6-5 3-2-1-5-11-17-9-17-10-19-10-16v-2l-10-1-3 1-1 31v27l2 8 6 9 2 2 9 3v2l-2 1h-59l2-3 14-7 2-5 2-7v-125l-3-10-5-5-9-5-1-3 10-1z" fill="#133840"/>
<path transform="translate(599,1011)" d="m0 0 3 1 10 24 11 26 11 23 12 27 11 25 10 24 7 12 8 9 6 3 5 2v1l-23 1h-35l1-2 12-4-1-9-9-22-3-5-72-1-3 3-6 15-5 14 1 4 5 3 2 1v2l-3 1h-52v-2l12-5 11-10 6-10 11-25 13-30 11-26 15-31 9-21 8-17z" fill="#133840"/>
<path transform="translate(704,1018)" d="m0 0h23l31 1-4 6-2 2v8l8 20 11 25 11 24 8 16 16 33 1 2 3 1 1-6 9-21 12-27 8-19 6-16 7-18 2-8v-9l-6-7-4-4 7-1h13l29-1-1 3h-2v2l-9 7-11 27-11 28-8 17-11 25-18 41-8 18-6 11h-3l-8-13-8-16-17-33-13-28-14-29-11-22-11-20-8-9-11-7z" fill="#133840"/>
<path transform="translate(133,979)" d="m0 0 6 2 3 3 3 1 56 1 93 1 2-5 1-1h6l-1 25-3 1-4-4-1-2h-62l1 169 3 9 5 5 6 4v2l-58 1 1-3 11-4 3-1 4-8 1-174h-66l-8 7-5 4h-2l1-10 3-22z" fill="#133840"/>
<path transform="translate(965,1019)" d="m0 0h93l-1 24-3-1-4-7-2-1-16-1h-26v58l38-1 2-2h4l1 22-4-2-4-3-37-1v63l2 7 3 2 6 1h30l8-2 5-6 3-6 3-1v9l-4 17-3 2h-48l-34-1-9-1-1-3 10-4 5-5 1-3 1-47v-63l-1-22-3-10-5-5-10-4z" fill="#133840"/>
<path transform="translate(1365)" d="m0 0h3v1280h-3l-1-3v-1268z"/>
<path transform="translate(305,735)" d="m0 0h14l21 6 26 9 24 11 22 12 14 8 25 16 31 19 17 12 12 8 26 16 23 14 17 9 14 8 23 12 21 9 36 12 20 6v2l-16-2-23-5-31-9-18-6-33-15-16-9-13-8-35-20-15-10-21-13-24-16-26-15-18-10-21-12-33-17-24-11-12-5-7-4z" fill="#BABEBF"/>
<path transform="translate(1110,1020)" d="m0 0h49l4 2-5 5-8 4h-2v136l1 8 3 1 12 1h21l9-3 7-5 7-9 4-6h2l-1 7-7 17-6 9-4 3h-61l-25-1-3-3 3-2 12-3 2-5 1-5v-136l-5-5-10-6-2-3z" fill="#133840"/>
<path transform="translate(394,1029)" d="m0 0h12l9 3 9 7 6 9 3 11v9l-4 11-7 9-12 6-4 1h-19l-5-3-1-7v-40l1-9 5-5z" fill="#BABEBF"/>
<path transform="translate(597,1056)" d="m0 0 4 4 13 32 13 30 1 7-3 2h-57l1-7 15-36 6-15 5-11z" fill="#BABEBF"/>
<path transform="translate(709,427)" d="m0 0 5 1 6 14 8 30 2 10v15l-4 4h-3l-2-6-5-28-7-35-1-4z" fill="#133840"/>
<path transform="translate(613,897)" d="m0 0 9 3 7 3 12 3 30 10 20 6v2l-16-2-23-5-31-9-3-1v-2l-11-3-2-2z" fill="#E2E2E2"/>
<path transform="translate(748,415)" d="m0 0h2l9 11 6 9 3 8v10l-1 2-4-1-6-7-7-17-3-8v-6z" fill="#133840"/>
<path transform="translate(824,457)" d="m0 0h1l-1 13-8 46-10 47h-2l1-10 6-33 8-38z" fill="#BABEBF"/>
<path transform="translate(624,908)" d="m0 0 8 1 22 6 6 1-9-4-2-2 9 2 30 9 3 1v2l-16-2-23-5-28-8z" fill="#BABEBF"/>
<path transform="translate(310,737)" d="m0 0 16 2 8 4 3 5-2 1-13-5-10-3z" fill="#E2E2E2"/>
<path transform="translate(867,375)" d="m0 0 3 1 4 10v5h-2v-2l-3-1-2-8z" fill="#DBDBDB"/>
</svg>
