<svg width="133" height="120" viewBox="0 0 133 120" fill="none" xmlns="http://www.w3.org/2000/svg">
<path d="M59.7227 6.38672H68.8758L70.1742 6.44531V6.73828L72.3813 6.79688L72.7059 6.85547L72.7708 7.08984L74.4586 7.20703V7.5L74.7832 7.44141L74.913 7.5L76.0166 7.55859L76.1464 7.85156L77.3149 7.96875L77.3798 8.26172L78.5483 8.32031L78.6132 8.37891V8.67188H79.3922L79.7817 8.73047L79.9116 9.02344L80.6906 9.08203L80.7555 9.375L81.5345 9.49219L81.5994 9.60938L81.5345 9.78516L82.3784 9.84375V10.1953H82.8977L83.2872 10.2539V10.5469L84.0662 10.6055L84.1311 10.8984L84.9101 11.0156L84.975 11.3086L85.6891 11.3672L85.754 11.4258V11.7188H86.2084V12.0703L86.9874 12.1289L87.0523 12.4219L87.4418 12.4805V12.832L88.2857 12.8906V13.2422H88.6752L88.7401 13.3008V13.5938L89.5191 13.6523L89.5841 13.9453L89.9735 14.0039V14.3555H90.363L90.428 14.4141V14.707L90.8824 14.7656L91.207 14.8242L91.2719 15.1172L91.6614 15.2344V15.5273H92.0509V15.8789H92.4404L92.5053 15.9375V16.2891H92.9597V16.6406H93.3492L93.4141 16.9922H93.7387L93.8036 17.0508V17.4023H94.1931L94.258 17.4609V17.7539H94.5826L94.7124 18.1055L95.037 18.1641L95.1019 18.5156L95.4914 18.6328V18.9258H95.816L95.9458 19.2773L96.2704 19.3359L96.4002 19.6875L96.7248 19.7461V20.0977H97.1143L97.1792 20.4492L97.5038 20.5078L97.6336 20.918V21.2109H97.9582L98.0231 21.2695V21.6211H98.4126V21.9727L98.8021 22.0312L98.932 22.4414V22.6758L99.2565 22.7344L99.3215 23.0859L99.646 23.1445L99.7109 23.4961L100.036 23.5547L100.1 23.8477V24.2578H100.49L100.555 24.6094L100.879 24.668L101.009 25.3711L101.334 25.4297L101.399 25.7812L101.723 25.8398L101.788 26.6016H102.113L102.243 27.0703V27.2461L102.567 27.3047L102.632 28.0664H103.022V28.8281H103.411L103.476 28.8867L103.541 29.5312L103.866 29.5898L103.93 30.3516H104.255L104.385 31.1133L104.709 31.1719V32.2266H105.099L105.164 33.0469H105.488L105.618 34.1016L105.943 34.1602L106.073 35.2734L106.397 35.332L106.462 36.7383L106.787 36.7969L106.852 37.5586V38.3203H107.176L107.306 39.4922V39.9023H107.566L107.631 40.1367L107.696 41.0156V42.5391H108.02L108.085 42.8906V53.2031L108.02 53.5547H107.696V55.0781L107.631 55.8984L107.566 56.1328H107.306L107.241 57.3633L107.111 57.7148H106.917L106.787 58.9453L106.722 59.1797H106.397V60.293L106.332 60.3516H106.008L105.943 61.1719L105.813 61.2305L105.683 61.1719V61.4648L105.618 61.5234L105.553 62.2266L105.229 62.3438L105.099 63.3398L105.034 63.3984H104.709V64.1602L104.385 64.2188L104.255 64.9219L103.93 64.9805L103.866 65.6836L103.541 65.7422L103.411 66.4453L103.087 66.5039L103.022 67.207H102.632L102.567 67.9688L102.243 68.0273L102.178 68.3789H101.788V69.0234L101.399 69.1406L101.334 69.5508H101.009V69.8438L100.879 70.2539L100.555 70.3125L100.49 70.6641H100.1V71.0742L100.036 71.3672L99.7109 71.4258L99.646 71.7773L99.3215 71.8359L99.1916 72.1875H98.867V72.5391H98.7372V72.8906H98.4126V73.2422L98.3477 73.3008H97.9582V73.6523L97.6336 73.7109L97.5687 74.0625H97.1143V74.4727H96.7248V74.8242H96.3353V75.1758L96.2704 75.2344H95.8809V75.5859H95.4914V75.9375L95.1019 76.0547L95.037 76.3477L94.7124 76.4062L94.6475 76.6992L94.258 76.7578L94.1931 77.1094H93.7387V77.4609L93.4141 77.5195L93.3492 77.8125L92.8948 77.8711V78.2227L92.1158 78.2812V78.6328L91.7263 78.6914L91.6614 78.9844H91.2719L91.207 79.3359L90.7525 79.4531H90.4929L90.428 79.7461L89.9735 79.8047V80.0977L89.9086 80.1562H89.5191V80.4492L89.1296 80.5664H88.7401V80.8594L88.6752 80.918H88.2857V81.2109L87.8313 81.3281H87.4418V81.6797L86.6628 81.7383V82.0312L86.2084 82.0898L86.1435 82.3828L85.2996 82.4414V82.7344L84.5206 82.8516L84.4557 83.1445L83.6118 83.2031V83.4961L82.8328 83.6133H82.4433V83.9062L82.3135 83.9648H81.5345V84.2578L81.4696 84.3164L80.3011 84.375V84.668L79.8467 84.7266H79.0677V85.0195L79.0027 85.0781L77.7693 85.1367V85.4297L77.3149 85.4883H76.1464V85.7812L76.0166 85.8398L74.8481 85.8984L74.4586 85.957L74.3937 86.1914L72.3164 86.3086L72.2515 86.6016L68.9408 86.6602L69.0057 86.8945L68.8758 86.9531L65.1107 87.0117H63.4229L60.1771 86.9531L60.0473 86.8945V86.6602L57.5155 86.6016L57.1261 86.543V86.25H56.2821L55.0487 86.1914L54.9838 85.8984L53.4258 85.8398L53.296 85.7812L53.2311 85.5469L51.6731 85.4297V85.0781H50.7643L50.4397 85.0195L50.3748 84.7852L49.2712 84.668L49.0765 84.375L48.2975 84.3164V83.9648H47.5185L47.129 83.9062L47.0641 83.6133L46.2202 83.4961V83.2031L45.3763 83.1445L45.3113 82.8516L44.5323 82.7344V82.4414H44.0779L43.6884 82.3242L43.6235 82.0898L43.1691 81.9727V81.7383L42.7147 81.6797L42.3901 81.6211L42.3252 81.3281L41.6111 81.2109V80.918H41.1567L41.0918 80.8594V80.5664L40.3777 80.5078L40.3128 80.4492V80.1562H39.9233L39.8584 80.0977V79.8047L39.1443 79.7461L39.0794 79.6875V79.3945L38.625 79.3359L38.5601 79.043L38.1706 78.9844L38.1057 78.6914L37.7162 78.5742L37.6513 78.2812L36.9372 78.2227V77.8711H36.5477L36.4178 77.5195L36.0933 77.4609L36.0284 77.1094H35.6389V76.7578H35.2494L35.1844 76.6992V76.4062H34.8599L34.4704 76.2891L34.4055 75.9961L34.016 75.8789L33.951 75.5859L33.6265 75.5273L33.5615 75.1758H33.237L33.1071 74.8242L32.7826 74.7656L32.5878 74.2383L32.6527 74.1211L32.5229 74.1797V74.2969H32.3281L32.2632 73.7109H31.8737L31.8088 73.6523V73.3594H31.4842L31.3544 73.0078L31.0298 72.9492V72.5391H30.5754L30.5105 72.1875L30.1859 72.1289L30.121 71.7773L29.7964 71.7188L29.6666 71.0742L29.342 71.0156V70.6641H28.9525L28.8876 70.2539H28.563L28.4332 69.8438H28.1735L28.0437 69.4922V69.1406H27.6542L27.5893 68.7305L27.2647 68.6719L27.1998 68.3789V67.9688H26.8103L26.7454 67.2656H26.4208L26.3559 67.1484V66.7969H26.0313L25.9015 66.0938L25.5769 66.0352L25.512 65.332H25.1874L25.1225 65.2734L25.0575 64.6289L24.733 64.5703L24.6681 63.8086H24.3435L24.2136 63.0469L23.954 62.9883L23.8241 62.2852V61.9336H23.4996L23.4346 61.8164V61.1133H23.1101L22.9802 60.4102V60H22.6557L22.5258 58.8867L22.2662 58.8281L22.1363 57.7734V57.3633L21.8117 57.3047L21.7468 56.9531V55.7812H21.4223L21.3573 55.4883L21.2924 54.3164V53.6133H21.1626L21.2275 53.7891L21.0328 53.8477L20.9678 53.6133L20.9029 52.793L20.838 50.0977L20.5783 50.1562L20.5134 49.7461V44.4141L20.6433 43.7109L20.7731 43.5938L20.838 43.3594L20.9029 41.8359L20.9678 41.0742L21.2924 41.0156V40.2539L21.3573 39.082L21.6819 39.0234L21.7468 37.5586L21.8117 37.207H22.1363L22.2012 35.7422L22.5258 35.625L22.6557 34.5117H22.9802L23.0452 33.3984L23.3697 33.3398L23.4346 32.6367L23.7592 32.5781L23.8891 31.5234L24.2136 31.4648L24.2786 30.7617L24.3435 30.7031H24.6681V30.0586L24.733 29.9414H25.0575L25.1225 29.1797L25.1874 28.8867L25.512 28.8281L25.5769 28.418H25.9015L25.9664 27.7148L26.0313 27.6562H26.3559L26.4208 26.9531L26.7454 26.8945L26.8103 26.25L26.8752 26.1914H27.1998V25.8398L27.3296 25.4883L27.5893 25.4297L27.6542 25.0195H28.0437L28.1086 24.3164L28.4332 24.2578L28.4981 23.9062H28.8876V23.4961L28.9525 23.2031L29.2771 23.1445L29.4069 22.7344H29.7315V22.4414L29.8613 22.3242H30.121L30.1859 21.9141L30.3157 21.6211L30.5754 21.6797L30.6403 21.2695L30.9649 21.2109L31.0298 20.8594L31.3544 20.8008L31.4842 20.4492H31.8088V20.1562L31.9386 20.0391H32.2632L32.3281 19.3945L32.6527 19.3359L32.7826 18.9844L33.1071 18.9258L33.237 18.5742H33.5615V18.2227H33.951V17.8711L34.016 17.8125H34.4055V17.4609L34.73 17.4023L34.8599 17.0508H35.2494V16.6992H35.6389V16.3477L35.7038 16.2891H36.0933V15.9961L36.4828 15.8789H36.8723V15.5859L36.9372 15.5273H37.3267V15.1758L37.7811 15.1172V14.7656L38.1706 14.707L38.2355 14.4141L38.9496 14.3555L38.6899 14.2969L38.7548 14.0625L39.404 14.0039V13.7109L39.7935 13.5938L39.9233 13.3008L40.6374 13.2422V12.9492L41.0918 12.832L41.1567 12.5391L41.6111 12.4219H41.9357V12.1289L42.3252 12.0703L42.3901 11.7773L43.234 11.7188V11.3672L43.7534 11.3086L43.6884 11.0742L44.4674 10.8984L44.5323 10.6055L45.2464 10.5469L45.3763 10.2539L46.2202 10.1953V9.84375L46.9992 9.78516L47.0641 9.49219L47.908 9.43359V9.14062L48.687 9.02344H49.0765V8.73047L49.9853 8.67188V8.37891L50.3099 8.32031H51.2187L51.2836 7.96875L52.517 7.85156L52.5819 7.61719L53.7504 7.5H54.1399V7.20703L55.8277 7.08984L55.8926 6.85547L56.2172 6.79688L58.4244 6.73828L58.3595 6.50391L58.4244 6.44531L59.7227 6.38672ZM52.7767 7.73438L52.7118 7.85156H52.9065V7.73438H52.7767ZM63.0334 8.61328L59.2683 8.67188L58.8139 8.73047L58.8788 9.02344L56.7366 9.08203L56.6067 9.19922L56.6716 9.375L55.3733 9.43359L54.5943 9.49219V9.78516L53.296 9.84375L52.9714 9.90234V10.1953H52.1275L51.9977 10.2539V10.5469L50.8292 10.6055L50.7643 10.8984L49.5958 11.0156L49.466 11.3086L48.7519 11.3672L48.687 11.4258V11.7188H47.908L47.8431 11.7773V12.0703L47.0641 12.1289L46.9342 12.4219L46.1552 12.5391V12.832L45.3763 12.8906L45.3113 13.1836L44.5323 13.3008L44.4674 13.5938L44.013 13.7109L43.9481 13.9453L43.234 14.0625V14.3555L42.7796 14.4141V14.707L42.0006 14.7656L41.9357 15.1172L41.5462 15.1758L41.4813 15.4688L40.7672 15.5859L40.7023 15.8789L40.3128 15.9375L40.2479 16.2305L39.8584 16.2891V16.6406H39.4689L39.404 16.6992V16.9922H39.0794L38.625 17.1094L38.5601 17.4023L38.2355 17.4609L38.1706 17.7539L37.7811 17.8711L37.7162 18.1641L37.3267 18.2227V18.5742H36.9372V18.9258L36.4828 18.9844V19.3359H36.0933V19.6875H35.7038L35.6389 19.7461V20.0977H35.2494V20.4492H34.9248L34.7949 20.5664V20.8594H34.4704L34.3405 21.2109L33.951 21.2695V21.9141H33.6265L33.4966 22.0312V22.3242L33.1071 22.3828V22.7344H32.7826L32.7176 22.793V23.1445H32.3281L32.2632 23.4375V23.8477H31.8737L31.8088 24.1992L31.4193 24.3164V24.668H31.0947L31.0298 24.7266L30.9649 25.3125L30.5754 25.4297L30.5105 25.7812L30.2508 25.8398L30.121 26.4844L29.7964 26.543L29.6666 27.0117V27.2461L29.342 27.3047V27.7148H28.9525L28.8876 28.418H28.563L28.4332 28.8281L28.3683 29.1211L28.0437 29.2383L27.9788 29.6484H27.7191L27.5893 30.3516L27.3296 30.4102L27.1998 30.8203L27.1349 31.4648L26.8103 31.5234L26.7454 32.2266L26.4208 32.2852L26.3559 33.0469H26.0313L25.9015 33.8086V34.1602H25.5769L25.447 35.2148L25.1225 35.332L25.0575 36.4453H24.733L24.6031 37.6172L24.3435 37.6758L24.2786 37.9688L24.2136 39.0234L24.1487 39.375H24.0189L23.954 39.1992L23.8891 39.4336L23.7592 41.3672H23.4996L23.4346 41.7773L23.3697 44.4141L23.1101 44.3555L23.0452 44.4141V50.5078L23.1101 50.8594L23.2399 50.8008L23.175 50.5664H23.3697L23.4346 53.5547L23.4996 53.9648H23.7592L23.8891 55.4297H24.3435V55.0781L24.6681 55.1367L24.733 54.7266H25.0575L25.1225 54.668V54.3164H25.512L25.5769 54.2578V53.9062H25.9664L26.0313 53.5547L26.3559 53.4961L26.4208 53.2031L26.7454 53.1445L26.8103 52.793L27.1349 52.7344L27.2647 52.3828V52.0898H27.5893L27.6542 52.0312V51.6797H28.0437L28.1086 51.6211V51.2695H28.4981L28.563 50.918L28.8876 50.8594L28.9525 50.5664L29.342 50.4492V50.0977H29.7315V49.7461L30.121 49.6875L30.2508 49.3359V49.043H30.5754L30.6403 48.6328H30.9649L31.0298 48.5742V48.2227H31.4193L31.4842 48.1641V47.8711L31.8737 47.8125V47.4609H32.2632L32.3281 47.1094L32.6527 47.0508L32.7826 46.6406V46.4062L33.1071 46.3477L33.237 45.9961L33.5615 45.9375V45.5859H33.951V45.1758H34.3405L34.4055 45.1172V44.7656H34.73L34.8599 44.4141V44.0625H35.1844L35.2494 44.0039V43.6523H35.6389L35.7038 42.8906H36.0933L36.1582 42.2461L36.4828 42.1289L36.5477 41.3672H36.8723L37.0021 39.4336H37.2618L37.3267 39.1992L37.3916 37.6172H37.7162L37.846 36.4453L38.1057 36.3867L38.2355 35.625V35.2734H38.5601L38.625 34.9219V34.2188H38.9496L39.0145 34.1602L39.0794 33.457L39.404 33.3984L39.5338 32.6367L39.7935 32.5781L39.9233 31.875H40.2479L40.3128 31.1133H40.6374L40.7023 31.0547L40.7672 30.4102L41.0918 30.3516L41.2216 29.8828V29.707L41.5462 29.5898L41.6111 29.2383L41.9357 29.1797L42.0006 28.4766H42.3252L42.3901 28.418V28.0664H42.7147L42.8445 27.7148V27.3633H43.1691L43.234 27.3047V26.9531H43.6235L43.6884 26.6016L44.013 26.543L44.1429 26.1328V25.8398H44.4674L44.5323 25.7812V25.4297H44.9218L44.9868 25.0781L45.3113 25.0195V24.668H45.7008L45.7658 24.6094V24.2578H46.1552V23.9062H46.5447L46.6097 23.8477V23.4961H46.9992L47.0641 23.2031L47.4536 23.0859V22.793H47.7781L47.908 22.6758V22.3828H48.2975L48.3624 22.0898L49.0765 21.9141V21.6211L49.5309 21.5625L49.5958 21.2695L49.9853 21.2109L50.0502 20.918L50.7643 20.8008L50.8292 20.5078L51.2187 20.4492V20.0977H51.6731L51.738 19.8047L52.4521 19.6875L52.517 19.3945L52.9065 19.3359L52.9714 18.9844L53.7504 18.9258L53.8153 18.6328L54.2697 18.5156V18.2812L55.0487 18.1641L55.1137 17.8711L55.8277 17.8125L55.8926 17.5195L56.2821 17.4023V17.1094H57.1261V17.4023L57.97 17.4609V17.8125L58.3595 17.8711L58.4244 18.1641L58.749 18.2227L58.8139 18.5742H59.2034V18.9258L59.6578 18.9844V19.3359L59.7227 19.3945H60.0473L60.1122 20.0391L60.4368 20.0977L60.5017 20.4492H60.8912L60.9561 20.8594H61.3456V21.2109L61.7351 21.2695L61.8 21.5625L62.1895 21.6797L62.2544 21.9141L62.579 21.9727H63.0334L63.0983 21.6797L64.2668 21.5625V21.3281L65.3704 21.2109L65.5002 21.1523V21.0352H65.2406V20.918L66.409 20.8594V21.2109L65.9546 21.2695V21.5625L66.0195 21.6211H67.2529L70.1742 21.5625V21.3867H69.7847L69.7198 21.3281H70.1742V20.8594L69.3952 20.8008L69.3303 20.5078L68.8109 20.3906H68.5513L68.4864 20.0977H68.0319V19.7461L67.2529 19.6875V19.3945L66.474 19.2773L66.409 18.9844L65.9546 18.9258V18.6328L65.5002 18.5156H65.1756V18.2227L64.7212 18.1641V17.8711L64.2668 17.7539H63.9422L63.8773 17.4023H63.4878V17.1094L63.4229 17.0508H63.0334V16.6992L62.9685 16.6406H62.6439V16.3477H63.4229L63.4878 16.6406L63.8773 16.6992H64.7212V16.9922L64.7861 17.0508L65.8897 17.1094V17.4023L66.7985 17.4609V17.7539L66.8635 17.8125L68.0319 17.8711V18.1641L69.2653 18.2812L69.3303 18.5742L70.1742 18.6328L70.2391 18.9258L71.0181 18.9844H71.862V19.2773L72.2515 19.3359L74.4586 19.3945V19.6289L74.7832 19.6875H76.0815V19.3945L75.692 19.2773V19.043L76.9903 18.9258L77.25 18.8672V18.6328L79.0677 18.5742L79.4572 18.5156L79.5221 18.2812H82.7679L82.4433 18.3398V18.5156L82.8328 18.5742L86.1435 18.6328V19.043L85.8189 18.9844L85.754 19.3945H85.3645L85.2996 19.6875L84.9101 19.7461L84.8452 20.0391L84.1311 20.0977L84.0662 20.1562V20.4492L83.2223 20.5078V20.8008L81.5345 20.8594L81.145 20.918V21.2109L81.5345 21.2695L81.5994 21.5625L81.924 21.6211H82.3784V21.9141L82.4433 21.9727H82.8328V22.0898H83.1574L83.2223 22.3828L83.6118 22.4414L83.6767 22.7344L84.4557 22.793V23.0859L84.5206 23.1445H85.2996V23.4375L85.3645 23.4961L86.5979 23.5547V23.9062H86.2733L86.2084 24.1992H84.1311L84.0662 23.9062L82.3784 23.8477V23.5547L80.7555 23.4375L80.6906 23.1445L79.8467 23.0859H79.0027L78.2238 23.2031V23.4961H77.8343L77.7693 23.5547V23.8477L77.3149 23.9062L76.9903 23.9648V24.2578L76.5359 24.3164L76.471 24.6094L76.0815 24.668L76.0166 24.9609L75.2376 25.0781V25.3711H74.8481V24.668H75.2376V24.3164L75.1727 24.2578H74.8481V23.9648L74.3937 23.8477H74.0042V23.5547L73.5498 23.4961H72.641L71.862 23.5547V23.8477L70.1742 23.9062V24.2578H63.1632L62.1895 24.3164L62.2544 24.5508L60.5017 24.668L60.4368 24.9609L56.0225 25.0195L55.4382 25.0781V25.3711H53.8153V25.0781L54.5943 25.0195L54.6592 24.7266L56.2821 24.668L56.7366 24.6094V23.9062L55.4382 23.8477V23.5547L54.5943 23.4375H54.2048L54.2697 23.2031L54.2048 23.1445L53.3609 23.0859V22.793L52.9065 22.6758H52.5819V22.5L52.9065 22.5586V22.4414L52.1275 22.3242L52.0626 21.9727L55.8926 22.0898V22.3242L56.7366 22.3828H57.97V21.6211L57.905 21.5625H57.5805L57.5155 20.8008H57.191L57.1261 20.0977H56.7366V19.3945L56.6716 19.2773H56.3471V18.9844L56.2821 18.9258H55.4382L55.0487 18.9844L54.9838 19.2773L54.5943 19.3359L54.5294 19.6289L53.7504 19.7461V20.0977H53.3609L53.296 20.1562V20.4492L52.517 20.5078L52.4521 20.8008L52.0626 20.918V21.2109L51.2187 21.2695V21.6211H50.8292V21.9727H50.4397L50.3748 22.0312V22.3242H50.0502L49.9204 22.4414V22.7344L49.2063 22.793L49.1414 23.0859L48.687 23.2031V23.4375L48.2975 23.4961L48.2326 23.8477L47.8431 23.9062V24.2578H47.4536L47.3887 24.6094L46.9992 24.668V25.0195H46.6097L46.5447 25.3711L46.1552 25.4883V25.7812H45.8307L45.7008 26.1914L45.3763 26.25L45.3113 26.8945H44.9218V27.3047H44.5323L44.4674 27.3633V27.7148H44.1429L44.013 28.125L43.6884 28.1836L43.5586 28.7695L43.234 28.8281L43.1691 29.1797L42.8445 29.2383L42.7796 29.9414H42.455L42.3252 30.3516L42.2603 30.6445L42.0006 30.7031L41.9357 30.8203V31.1719H41.6111L41.4813 31.875L41.1567 31.9336L41.0918 32.5195L41.0269 32.6367L40.7672 32.6953L40.5725 33.6328L40.4426 33.6914L40.5076 33.457H40.3777L40.2479 34.1016V34.5117H39.9233L39.8584 34.5703L39.7935 35.2734L39.4689 35.3906L39.404 36.4453H39.0794L39.0145 36.7969V37.5586H38.6899L38.625 37.6172L38.5601 38.3789V39.0234L38.2355 39.082L38.1706 39.4922V42.1289L38.2355 42.5391H38.5601L38.625 43.6523L38.9496 43.7109L39.0145 44.4141L39.3391 44.4727L39.4689 45.2344H39.7935L39.8584 45.9375H40.2479L40.3128 46.6992H40.7023V47.1094L40.7672 47.4023H41.0918L41.1567 47.8711H41.4813L41.5462 48.2812L41.6111 48.5742H41.9357V48.9258L42.3252 49.043L42.455 49.6875H42.7796L42.8445 50.0977L43.1691 50.1562L43.234 50.5078H43.6235V50.8594L43.7534 50.9766H44.013V51.1523L43.7534 51.0938V51.2109L44.4025 51.2695L44.5323 50.918L44.8569 50.8594L44.9218 50.4492H45.3113V50.0977H45.6359L45.8307 49.6875V49.3945H46.1552V48.5742H45.8307L45.7658 47.4609L45.5061 47.4023V47.2852H45.6359V47.1094L45.4412 47.0508L45.3113 45.5859L44.9868 45.5273V41.7773L45.3113 41.7188L45.3763 40.1953L45.4412 39.5508L45.7008 39.4922L45.7658 39.1992L45.8307 38.3789L46.1552 38.3203L46.2851 37.2656L46.6097 37.207L46.6746 36.5039L46.9992 36.4453L47.0641 35.6836H47.3887L47.5185 35.2734V34.9805H47.8431L47.908 34.5703L48.2326 34.5117L48.2975 34.2188V33.8086H48.687L48.7519 33.457L49.0765 33.3984L49.1414 32.9883H49.5309L49.5958 32.2852H49.9853L50.0502 31.9336L50.4397 31.8164V31.5234H50.7643L50.8292 31.4648V31.1719H51.2187L51.3485 30.8203L51.9977 30.7031L52.0626 30.4102L52.4521 30.3516L52.517 30.0586L52.9714 29.9414V29.6484L53.6855 29.5898L53.7504 29.5312V29.2383L54.5943 29.1797V28.8281H55.3733V28.4766H55.8926L56.2821 28.418V28.125L57.5155 28.0664L57.5805 28.0078V27.7148H60.5017L62.9685 27.7734L63.0334 28.0664H63.8773L63.9422 28.3594L64.137 28.418L64.2668 28.8281L63.4878 28.7695V28.6523L63.8124 28.5938V28.5352L63.4878 28.4766H59.2683L59.2034 28.5938L59.2683 28.7109L59.5929 28.6523V28.7695L57.5805 28.8281L57.5155 28.8867V29.1797L56.2821 29.2383L56.2172 29.5312L55.5032 29.5898L55.4382 29.6484V29.9414L54.5943 30V30.3516H54.1399L53.8153 30.4102V30.7031L53.3609 30.7617L53.296 31.0547L52.9065 31.1133V31.4648H52.4521L52.1275 31.5234V31.875H51.738L51.6082 32.2266L51.2187 32.2852V32.6367H50.8941L50.7643 32.9883L50.4397 33.0469L50.3099 33.457V33.6914L49.9853 33.75L49.9204 33.8086V34.1602H49.5309V34.5703H49.1414L49.0765 35.2734H48.7519L48.6221 35.6836L48.3624 35.7422L48.2975 35.9766V36.4453H47.908L47.7781 37.5L47.4536 37.5586L47.3887 38.2617L47.0641 38.3789L46.9992 38.7891V39.4922H46.6746L46.6097 39.5508L46.5447 41.0156H46.2202L46.1552 41.7773V45.2344L46.2202 45.9961H46.5447L46.6097 47.5195L46.6746 47.8125H46.9342L47.0641 48.2227H47.4536L47.5185 47.8711L47.8431 47.8125V47.4609H48.2326L48.2975 47.4023V47.0508H48.6221L48.7519 46.6992L48.8168 46.4062L49.1414 46.3477L49.2063 45.9961H49.5309L49.5958 45.6445L49.9853 45.5273V45.1758H50.3748L50.4397 44.8242L50.7643 44.7656V44.4141H50.8941L50.959 44.1211H51.2187V43.7109H51.6082L51.6731 43.6523V43.3008H51.9977L52.0626 43.2422V42.8906H52.4521L52.517 42.5391L52.9065 42.4805L52.9714 41.7773H53.296L53.3609 41.7188V41.3672H53.7504L53.8153 41.0156L54.1399 40.957L54.2697 40.3711L54.5943 40.2539L54.6592 39.9023L55.0487 39.8438V39.4922H55.3733L55.4382 39.4336V39.082L55.8277 39.0234L55.9576 38.3789L56.2821 38.3203L56.3471 37.5586H56.6716L56.7366 37.207L56.8015 34.9805H57.0611L57.191 34.1602V33.8672H57.5155L57.5805 34.1602L57.905 34.2188V34.6289L57.6454 34.5703V34.8633L58.2945 34.9219L58.4893 34.3945V34.2188L58.8139 34.1602L58.8788 34.1016V33.8086H59.2034L59.2683 33.75V33.457H59.5929L59.7227 33.3398V33.0469L60.4368 32.9883L60.5666 32.6367L60.8912 32.5781V32.2852H61.2807L61.4105 32.168V31.9336L62.1895 31.875V31.5234L63.0983 31.4648V31.1719L63.9422 31.1133L64.2668 31.0547V30.7617H65.1107L65.5651 30.7031L65.63 30.5859L65.5651 30.4102H71.4076V30.7031L72.7059 30.8203L72.7708 31.0547L73.6147 31.1719H73.9393V31.4648L74.7832 31.5234V31.8164L74.8481 31.875L75.6271 31.9336V32.2266L76.0815 32.3438L76.1464 32.5781L76.8605 32.6953L76.9254 32.9883L77.3798 33.0469V33.3984H77.7693V33.6914L78.2238 33.8672V34.1016L78.6782 34.2188H78.9378V34.5117H79.0677V34.6289L79.3273 34.6875L79.4572 35.2148L79.8467 35.332L79.9116 35.6836H80.3011V36.0352L80.6256 36.0938L80.7555 36.5039H81.0801L81.145 37.207L81.5345 37.2656L81.5994 37.5586H81.924L82.0538 37.207L82.3784 37.1484L82.4433 36.5039H82.7679L82.8977 36.0938L83.2223 36.0352V35.6836H83.6118L83.6767 35.332L84.0662 35.2734V34.9219H84.4557L84.5206 34.8633V34.5117H84.8452L84.975 34.1016V33.8086H85.2996L85.3645 33.75V33.3984H85.754L85.8189 32.6953H86.1435L86.2733 32.5781V32.3438L86.5979 32.2852L86.9874 32.1094V31.875H87.4418V31.5234L88.2857 31.4648L88.2208 31.1719L89.9735 31.1133L90.8175 31.1719L90.8824 31.4648L91.6614 31.5234V31.875H92.0509V32.168L92.1807 32.2852H92.5053V32.5781L92.8948 32.6953L92.9597 32.9883L93.3492 33.1055L93.4141 33.3398L93.8036 33.457L94.0633 33.5156L93.8685 33.5742V33.6914L94.1931 33.8086H94.5826V34.1602H94.9721V34.4531L95.1019 34.5703H95.4265V34.8633L95.816 34.9805L95.8809 35.2734H96.2704L96.3353 35.6836H96.7248V36.0352L97.1143 36.0938L97.1792 36.3867L97.5687 36.5039H97.8933V36.7969L98.3477 36.8555V37.1484L98.7372 37.2656L98.867 37.6172L99.1916 37.6758L99.2565 37.9688H99.646V38.3203L100.036 38.3789L100.1 38.7305H100.49V39.0234L100.879 39.1406L100.944 39.4336L101.334 39.4922L101.399 39.8438H101.723L101.788 39.9023H102.113V40.1953L102.178 40.2539H102.567V40.5469L102.957 40.6641L103.022 41.0156L103.411 41.0742L103.476 41.3672H103.866V41.6602L104.255 41.7773L104.32 42.0703H104.709V42.4805H105.488V42.1875H105.164V40.7227L105.099 39.9023L104.774 39.8438L104.709 38.3203H104.385L104.255 37.1484L104.19 36.8555H104.06L104.125 37.1484H103.995L103.93 36.7383L103.801 35.6836H103.476V34.9219L103.411 34.5703L103.087 34.5117L103.022 33.75H102.697L102.632 33.0469L102.502 32.6367L102.243 32.5781L102.178 31.875H101.788V31.1719L101.723 31.0547H101.399L101.334 30.293H101.009L100.944 29.6484L100.879 29.5312L100.62 29.4141L100.49 28.8281L100.165 28.7695L100.1 28.125L100.036 28.0664H99.7109L99.646 27.3047H99.2565V26.9531L99.1267 26.8359H98.932V26.7188L99.1267 26.7773V26.6602L98.867 26.543L98.8021 26.1914L98.4775 26.1328L98.4126 25.4883L98.0231 25.3711L97.9582 25.0195L97.6336 24.9609L97.5038 24.3164L97.1792 24.2578L97.1143 23.9062L96.7897 23.8477L96.6599 23.4375H96.3353L96.2704 22.793L95.9458 22.7344L95.816 22.3828L95.4914 22.3242L95.4265 21.9727L95.1019 21.9141L94.9721 21.5625H94.7124V21.2695L94.5826 20.918L94.258 20.8594L94.1282 20.5078L93.8036 20.4492L93.7387 20.0977H93.3492V19.7461L92.8948 19.6875V19.3359H92.5053V18.9844L92.1158 18.9258L92.0509 18.5742H91.6614V18.2227L91.2719 18.1641L91.142 17.8125H90.8175V17.4609L90.428 17.4023L90.363 17.1094L89.649 16.9336L89.5841 16.6992L89.5191 16.6406H89.1296V16.2891L88.7401 16.2305L88.6752 15.9375L87.9612 15.8789V15.5859L87.5067 15.4688L87.4418 15.1758L87.0523 15.1172L86.9225 14.7656L86.2084 14.707V14.4141L86.1435 14.3555H85.754V14.0625L85.0399 13.9453L84.9101 13.6523L84.4557 13.5352L84.196 13.418H84.4557V13.3008L83.6767 13.1836L83.6118 12.8906L82.8328 12.832V12.5391L82.0538 12.4219L81.9889 12.1289L81.145 12.0703V11.7773L81.0801 11.7188H80.3011V11.4258L80.2361 11.3672L79.1326 11.3086L79.0677 11.0156L78.9378 10.957L78.2238 10.8984L78.1588 10.6055L76.9254 10.5469V10.2539L76.5359 10.1953H75.692V9.90234L75.6271 9.84375L74.3288 9.78516L74.3937 9.55078L74.3288 9.49219L72.3164 9.375L72.2515 9.08203L70.6286 9.02344H69.7847L69.8496 8.84766H70.1742V8.73047L69.3303 8.67188L65.1107 8.61328H63.0334ZM79.1975 11.0742L79.2624 11.1914H79.3922V11.0742H79.1975ZM88.091 15.5859V15.7617L88.2208 15.6445L88.091 15.5859ZM64.0071 17.5195L64.0721 17.6367H64.2019V17.5195H64.0071ZM94.8422 21.2695V21.4453H94.9721L94.9072 21.2695H94.8422ZM33.6265 21.6797V21.7969L33.8212 21.7383L33.6265 21.6797ZM82.8977 22.207V22.3242H83.0275V22.207H82.8977ZM79.1326 22.793V22.9688L79.3922 22.9102V22.793H79.1326ZM101.399 25.957V26.0742L101.529 26.0156L101.399 25.957ZM29.4069 27.0117L29.4718 27.1875L29.6017 27.0117H29.4069ZM67.6424 31.4648L66.409 31.5234V31.8164L64.7212 31.875L64.6563 32.168L63.4878 32.2852L63.4229 32.5781L62.6439 32.6367L62.579 32.9297L61.8 33.1055V33.3398L61.3456 33.3984V33.75H60.9561L60.8263 34.1016L60.4368 34.2188V34.5117H60.1122L60.0473 34.5703V34.8633H59.7227L59.5929 35.2148L59.2034 35.332V35.6836H58.8788L58.749 36.0938V36.3867H58.4244V37.5L58.749 37.6172L58.8139 38.2617L58.8788 38.3203H59.2034L59.2683 39.082L59.5929 39.1406L59.6578 39.7852L59.7227 39.8438H60.0473V40.1953L60.1771 40.5469L60.4368 40.6055L60.5017 41.0156L60.8263 41.0742L60.9561 41.7773H61.3456V42.1875L61.4105 42.4805H61.7351L61.8 42.8906L62.1246 42.9492L62.1895 43.3594H62.5141L62.579 43.7695L62.6439 44.0039L63.0334 44.0625V44.4141L63.4229 44.4727L63.4878 45.1172L63.8124 45.1758L63.8773 45.5273L64.2019 45.5859L64.2668 45.9375L64.5914 45.9961L64.7861 46.6406H65.1107L65.1756 47.0508L65.5002 47.1094L65.5651 47.4609H65.9546V47.8125L66.2792 47.9297L66.474 48.5742H66.7985V48.9844H67.188L67.2529 49.3945L67.5775 49.4531L67.7074 49.8047L67.967 49.9219L68.0969 50.4492L68.5513 50.5664H68.8758L69.2653 50.4492L69.3952 50.0977L69.4601 49.8633L69.7847 49.7461L69.8496 49.4531L70.1742 49.3945L70.2391 49.043L70.6286 48.9844V48.6328H70.9532L71.083 48.2812L71.4076 48.2227L71.5374 47.8711L71.862 47.8125V47.4609H72.2515L72.3164 47.1094L72.641 47.0508L72.7708 46.6992L73.0954 46.6406L73.2252 46.2305V45.9961H73.5498L73.6147 45.5859H73.9393L74.0691 45.2344L74.3937 45.1758V44.8242H74.7832L74.8481 44.4141H75.2376L75.3025 44.0625L75.6271 44.0039L75.7569 43.6523L76.0166 43.5938L76.0815 43.2422H76.471L76.5359 42.5977H76.8605L76.9903 42.4805V42.1875H77.3149L77.3798 42.1289V41.7773H77.7693L77.8343 41.4258L78.2238 41.3672V41.0156H78.5483L78.6782 40.6641L79.0027 40.6055V40.2539H79.3922L79.4572 40.1953L79.5221 39.5508L79.8467 39.4922L79.9116 39.082H80.3011V38.7305H80.6256L80.6906 38.6719V38.3203H80.366L80.3011 37.6758L80.2361 37.5586H79.9116L79.8467 37.1484H79.5221L79.4572 36.5039L79.0677 36.3867L78.9378 36.0352H78.6132V35.6836L78.2238 35.625L78.1588 35.2734H77.7693V34.9219H77.3798L77.25 34.5117H76.9254V34.2188L76.8605 34.1602H76.471V33.8086L75.7569 33.6914L75.692 33.3984H75.2376V33.0469L74.3937 32.9883V32.6367L73.5498 32.5781V32.2852L72.641 32.168H72.3164L72.3813 31.9336L72.3164 31.875L70.6286 31.8164L70.6935 31.582L70.6286 31.5234L69.7847 31.4648H67.6424ZM89.5841 31.875L89.1296 31.9336V32.168L88.3506 32.2852L88.2857 32.5781L87.8962 32.6367V32.9883H87.5067L87.4418 33.0469V33.3984H87.0523L86.9874 33.75L86.6628 33.8086L86.533 34.2188V34.5117H86.2084L86.1435 34.9805V35.6836H85.754V36.7969L86.0786 36.8555L86.2084 37.6172L86.4681 37.6758L86.5979 38.3203L86.6628 38.3789H86.9874L87.0523 39.082L87.3769 39.1406L87.4418 39.8438L87.8313 39.9023L87.8962 40.2539L88.2208 40.3125L88.3506 40.957H88.6752V41.3672L89.0647 41.4258L89.1296 42.0703L89.1946 42.1289H89.5191L89.5841 42.5391L89.9086 42.5977L90.0385 43.2422L90.363 43.3008L90.428 43.6523L90.7525 43.7109L90.8175 44.0625L91.0771 44.1211L91.207 44.4141L91.2719 44.7656L91.5964 44.8242L91.6614 45.1758H92.0509V45.5273L92.1807 45.6445H92.4404L92.5053 46.2891H92.8948L92.9597 46.6992L93.2843 46.7578L93.4141 47.1094H93.7387L93.8036 47.8125H94.1931V48.1641L94.258 48.2227H94.5826V48.5742L94.9721 48.6914L95.1019 49.043H95.4265L95.4914 49.6875L95.5563 49.7461H95.8809V50.0977H96.2704V50.4492L96.6599 50.5664L96.7897 50.918H97.1143V51.2695H97.5038V51.6211L97.5687 51.6797H97.8933L97.9582 52.0312L98.0231 52.0898H98.3477V52.3828L98.7372 52.5L98.8021 52.793L98.932 53.0859L99.2565 53.2031L99.3215 53.4961H99.646L99.7109 53.9062H100.1V54.2578L100.49 54.3164L100.62 54.668H100.944V55.0195H101.334L101.399 55.4297H101.788V55.7812L102.178 55.8398L102.243 56.1914H102.632V56.543H103.022L103.087 56.9531L103.801 57.0117L103.866 57.3047L104.06 57.3633L104.32 57.3047V56.9531H104.709L104.774 55.8398L105.099 55.7812L105.229 52.793H105.488L105.553 52.3828L105.618 45.9375L105.553 44.0625L105.164 44.0039L105.099 43.7109L104.774 43.6523L104.709 43.3008L103.995 43.1836L103.93 42.8906L103.541 42.832L103.411 42.4805L103.087 42.4219L103.022 42.1289L102.697 42.0703L102.632 41.7773L102.243 41.7188L102.178 41.3672H101.723V41.0156H101.334V40.6641L100.879 40.5469L100.62 40.4883L100.555 40.2539L100.165 40.1367L100.1 39.8438H99.7109V39.5508L99.5811 39.4336H99.2565V39.1406L98.867 39.0234L98.8021 38.7305H98.4126V38.3789L98.3477 38.3203H97.9582V38.0273L97.4389 37.8516H97.2441L97.1792 37.6172L97.0494 37.5L96.7897 37.4414L96.6599 37.1484H96.3353V36.8555L95.9458 36.7383L95.8809 36.4453H95.4914L95.4265 36.0352H95.037V35.6836L94.6475 35.625L94.5826 35.332L94.258 35.2734L94.1282 34.9219H93.7387V34.5703L93.3492 34.5117L93.2843 34.2188L92.8948 34.1016H92.5702V33.8086L92.1807 33.6914L92.1158 33.3984L91.7263 33.3398L91.6614 33.0469L91.5964 32.9883H91.2719V32.6953L91.207 32.6367H90.8175V32.2852L89.9735 32.2266V31.9336L89.9086 31.875H89.5841ZM50.0502 33.457V33.5742H50.18V33.457H50.0502ZM84.1311 36.8555V37.207L84.4557 37.1484L84.5206 48.9844L84.5855 49.3359L84.8452 49.3945L84.9101 50.0977L85.0399 50.2148H85.2347L85.2996 50.5078L85.4294 50.8594H85.754V51.2109L85.8189 51.2695H86.2084V51.6211L86.533 51.6797L86.6628 52.0312H86.9874V52.3242L87.1172 52.4414H87.4418V52.793H87.8313V53.1445L87.9612 53.2617H88.2208L88.2857 53.5547L88.4156 53.9062H88.7401V54.2578H89.1296V54.668H89.5191L89.649 55.0781H89.9735V55.4297H90.363V55.7812L90.428 55.8398H90.8175V56.1914L90.8824 56.25H91.207V56.543L91.2719 56.6016H91.5964V56.9531L92.0509 57.0117V57.3633L92.3754 57.4805L92.5702 57.832H92.8299L92.8948 58.125L93.0246 58.418L93.3492 58.5352L93.479 58.8281L93.7387 58.8867L93.8036 59.1797L94.1931 59.2969L94.258 59.5898L94.5826 59.6484L94.7124 60L95.037 60.0586L95.1019 60.3516L95.4265 60.4102L95.4914 60.7031L95.816 60.7617L95.9458 61.1133L96.2704 61.1719L96.4002 61.5234H96.7248V61.8164L97.1143 61.9336L97.1792 62.2266L97.8284 62.4023L97.8933 62.6367L98.3477 62.6953L98.4126 63.0469L98.7372 63.1055L98.867 63.457H99.1916L99.2565 63.8086H99.646V64.1602L100.036 64.2188L100.1 64.5703L100.49 64.6289L100.555 64.9219L101.334 64.9805L101.399 64.5703H101.788L101.853 63.8672L102.178 63.8086L102.243 63.0469H102.567L102.697 62.2852L103.022 62.2266L103.087 61.1719H103.411L103.541 60.0586L103.866 60L103.93 58.8867L103.866 58.4766H103.411V58.125H103.022V57.7734L102.567 57.6562L102.308 57.5977L102.178 57.3047L101.853 57.2461L101.788 56.9531L101.399 56.8945L101.334 56.543H100.944V56.25L100.879 56.1914H100.555L100.49 55.8398L100.165 55.7812L100.1 55.4297H99.646V55.0781L99.3215 55.0195L99.1916 54.668L98.867 54.6094L98.8021 54.3164H98.4126V53.9062L98.0231 53.8477L97.9582 53.5547L97.6336 53.4961L97.5038 53.1445H97.1792V52.793L96.7248 52.7344V52.3828L96.4002 52.3242L96.2055 51.6797H95.9458L95.816 51.2695H95.4265V50.918L95.1019 50.8594L95.037 50.5078H94.6475L94.5826 50.0977L94.258 50.0391L94.1282 49.6875H93.8036L93.7387 49.043L93.4141 48.9844L93.2843 48.6328H92.9597L92.8948 48.2227L92.5702 48.1641L92.5053 47.8125H92.1158L92.0509 47.1094L91.7263 47.0508L91.6614 46.6992H91.2719V46.3477L91.207 46.2891H90.8824L90.8175 45.5859L90.428 45.5273L90.363 45.1758L90.0385 45.1172L89.9735 44.7656H89.649L89.5191 44.0625H89.1296V43.6523L88.8051 43.5938L88.6752 42.9492L88.6103 42.8906H88.2857V42.5391L88.2208 42.4805H87.8962L87.8313 41.8359L87.7664 41.7773H87.4418V41.3672H87.0523L86.9874 40.6055H86.6628L86.533 39.9023L86.2084 39.8438V39.4922L86.0786 39.1406H85.8189L85.754 38.6719H85.4294L85.3645 37.9688L85.1048 37.8516L84.975 37.5586L84.8452 36.8555H84.1311ZM47.5185 37.2656L47.6483 37.3828L47.7132 37.2656H47.5185ZM85.1048 37.6758L85.2347 37.793V37.6758H85.1048ZM97.3091 37.6758L97.4389 37.793V37.6758H97.3091ZM57.5805 38.3789V48.9844H57.905V50.0977L57.97 50.8008L58.0349 50.8594H58.3595L58.4244 51.2695L58.749 51.3281L58.8788 51.6797H59.2034V52.0312L59.5279 52.1484L59.7227 52.7344L60.0473 52.793L60.1771 53.1445H60.5017V53.4961L60.6964 53.5547H60.8912V53.8477L61.2807 53.9648L61.3456 54.3164H61.7351V54.668L62.1246 54.7852L62.1895 55.0781H62.5141L62.6439 55.4883L62.9036 55.6055L63.0983 55.8984L63.2931 55.957L63.4878 56.3086L63.7475 56.3672L63.9422 56.9531H64.3317V57.3047L64.6563 57.3633L64.7861 57.7148H65.1107V58.0078L65.5002 58.125L65.5651 58.4766H65.9546V58.7695L66.0845 58.8867H66.409V59.1797L66.474 59.2383H66.7985V59.5898L67.188 59.6484L67.2529 60H67.6424V60.293L68.0319 60.4102L68.1618 60.7617H68.4864V61.1133L68.8758 61.1719L68.9408 61.5234H69.3303L69.3952 61.875L69.7198 61.9336L69.8496 62.2852H70.1742V62.6367H70.6286V62.9883L71.083 63.0469V63.3398L71.4725 63.457L71.7971 63.5156L71.862 63.8086L72.1866 63.9258L72.3164 64.2188H72.641V64.5117L72.8357 64.6289H73.0954V64.9219L73.1603 64.9805H73.5498V65.332H73.9393V65.625L74.3937 65.7422V66.0352L74.7832 66.1523L74.8481 66.4453H75.2376V66.7969L75.3025 66.8555H75.692V67.1484L76.0815 67.2656L76.1464 67.5H76.471V67.6172L76.8605 67.6758V67.9688L77.3149 68.0273V68.3203L77.7044 68.4375L77.7693 68.7305H78.1588V69.082L78.6132 69.1406V69.4336L79.0677 69.5508L79.3273 69.6094L79.4572 69.9023H79.8467V70.2539L80.2361 70.3125L80.3011 70.6055L80.6906 70.7227L80.7555 71.0156L81.4046 71.1328L81.4696 71.3672L81.924 71.4258L81.9889 71.7773L82.3784 71.8359L82.4433 72.1289L83.0925 72.2461L83.1574 72.5391L83.6118 72.5977L83.7416 72.9492L84.4557 73.0078L84.5206 73.3008L84.9101 73.3594L84.975 73.6523L85.754 73.7109V74.0625L86.533 74.1211L86.5979 74.4141L87.0523 74.5312L87.1172 74.707H87.4418V74.8242L87.8313 74.8828L87.8962 75.1758L88.7401 75.2344V75.5859L89.9086 75.6445L89.9735 75.9375L91.142 76.0547V76.1719L90.8824 76.1133V76.2305L91.2719 76.3477H92.0509L92.1158 75.5859H91.6614V75.2344L90.8824 75.1758V74.8828L90.8175 74.8242H90.428L90.363 74.4727L89.9086 74.3555H89.649V74.0625L89.1946 74.0039L89.1296 73.6523H88.7401L88.6752 73.3008H88.2857V72.9492L87.8962 72.8906L87.8313 72.5391H87.4418V72.1875L87.0523 72.1289L86.9874 71.8359L86.5979 71.7188L86.533 71.4258L85.8189 71.3672V71.0742L85.4943 70.957L85.2347 70.3711L84.9101 70.1953L84.7803 69.9023L84.5206 69.8438L84.4557 69.5508L84.1311 69.4922L84.0662 69.1992L83.6767 69.082L83.6118 68.7891L83.2872 68.7305L83.2223 68.3789H82.8328V68.0273L82.7679 67.9688H82.3784V67.6172L82.0538 67.5586L81.924 67.207L81.5994 67.1484L81.5345 66.8555L81.145 66.7969V66.4453L80.8853 66.3281L80.7555 66.0938L80.6906 65.7422L80.366 65.6836L80.2361 65.332L79.9116 65.2734L79.7817 64.9219H79.4572V64.5703H79.0677V64.2188L79.0027 64.1602H78.6782L78.6132 63.75L78.2887 63.6914L78.1588 63.0469H77.7693V62.6953L77.7044 62.6367H77.3798V62.3438L76.9903 62.2266L76.9254 61.875L76.6009 61.8164L76.471 61.1719H76.0815V60.8203L75.692 60.7031L75.6271 60.4102L75.2376 60.3516V60H74.8481V59.6484L74.7183 59.5312H74.5235L74.3937 58.9453L74.3288 58.8867H74.0042L73.9393 58.4766H73.5498V58.0664H73.1603V57.7148L72.8357 57.5977L72.7059 57.3047L72.641 56.9531H72.2515V56.6016H71.862V56.1914H71.4725V55.8398L71.4076 55.7812H71.083V55.4883L70.9532 55.1367L70.6286 55.0195L70.5637 54.7266L70.2391 54.668L70.1742 54.3164L69.8496 54.2578L69.7198 53.9062H69.3952V53.5547L69.2653 53.2031H68.9408L68.8758 52.793H68.4864V52.3828H68.0969V52.0312L67.7074 51.9727V51.6797L67.5126 51.2695H67.3179L67.188 50.918L66.8635 50.8594L66.7985 50.5078L66.474 50.4492L66.409 50.0977L66.0845 50.0391L65.8897 49.4531L65.63 49.3945L65.5002 48.9844L65.1756 48.9258L65.1107 48.5742H64.7212V48.2227L64.6563 48.1641H64.3317L64.2668 47.5195L64.2019 47.4609H63.8773V47.0508H63.4878L63.4229 46.6406H63.0983L63.0334 46.2305L62.9685 45.9375L62.6439 45.8789L62.579 45.5273H62.1895L62.1246 44.8828H61.8L61.7351 44.4141H61.3456V44.0039H60.9561L60.8912 43.3008L60.5666 43.2422L60.5017 42.8906L60.1771 42.832L60.0473 42.1289L59.7227 42.0703L59.6578 41.4258L59.5929 41.3672H59.2683L59.2034 40.6641L58.8788 40.6055L58.749 39.9023L58.4893 39.8438L58.3595 39.1406L58.2945 39.082H57.97V38.6719L57.905 38.3789H57.5805ZM100.685 40.3125L100.815 40.4297V40.3125H100.685ZM37.0021 43.2422L36.9372 43.3008V55.4297L37.1968 55.4883L37.3267 56.1914L37.7162 56.25L37.7811 56.6016H38.1706V56.9531H38.5601V57.3047L38.9496 57.4219L39.0145 57.7148L39.404 57.7734V58.0664L39.7935 58.1836L39.8584 58.4766H40.2479V58.8281L40.6374 58.9453L40.7672 59.2969H41.0918V59.5898L41.4813 59.707L41.5462 60L41.8708 60.0586L42.0006 60.4102H42.3252L42.3901 60.7617L42.7147 60.8203L42.7796 61.1133L43.234 61.1719V61.5234H43.6235V61.875L43.6884 61.9336H44.0779V62.2852H44.4674V62.6367L44.8569 62.6953L44.9218 63.0469H45.3113V63.3398L45.7008 63.457L45.7658 63.75L46.2202 63.8086V64.1602L46.6746 64.2773H46.9342L46.9992 64.5703L47.0641 64.6289H47.3887V64.9219L47.4536 64.9805H47.8431V65.332L48.2326 65.3906L48.2975 65.6836L48.6221 65.7422L48.7519 66.0938H49.1414V66.4453H49.5309V66.7969L49.5958 66.8555H49.9853V67.1484L50.4397 67.3242L50.5046 67.5L51.1538 67.6758L51.2187 67.9688L51.6082 68.0273L51.6731 68.3789H52.0626V68.6719L52.4521 68.7891L52.517 69.082L52.8416 69.1406L52.9714 69.4922L53.5557 69.6094L53.7504 69.9023H54.1399V70.1953L54.2048 70.2539H54.5943V70.6055L55.0487 70.6641V71.0156H55.5032V71.3086L55.8926 71.4258L56.2172 71.4844L56.2821 71.7773L56.6716 71.8359L56.7366 72.1289L56.8015 72.1875H57.1261V72.5391H57.5805V72.8906L58.0998 73.0078L58.2945 73.0664L58.3595 73.3008L58.8139 73.3594V73.6523L59.2034 73.7109L59.2683 74.0625L60.0473 74.1211V74.4141L60.4368 74.5312L60.5017 74.8242H60.8912V75.1172L61.4754 75.293H61.6053L61.7351 75.5859L62.1246 75.6445L62.1895 75.9375L62.579 76.0547L62.6439 76.2891L63.2931 76.4648L63.4229 76.6992L63.8124 76.7578L63.9422 77.1094H64.6563V77.4023L65.1107 77.5195L65.1756 77.8125L65.8897 77.9297L65.9546 78.2227L66.409 78.2812L66.474 78.5742L66.7985 78.6328H67.2529V78.9844L68.0319 79.043V79.3359L68.0969 79.3945L68.8109 79.4531L68.8758 79.7461L69.7198 79.8047V80.0977L70.1742 80.2148H70.5637V80.5078L71.4076 80.5664V80.8594L71.4725 80.918H72.2515V81.2109L72.3164 81.2695L73.1603 81.3281V81.6211L74.0042 81.7383H74.3288L74.3937 82.0312L75.5622 82.0898V82.3828L75.692 82.4414L77.25 82.5L77.1851 82.6172H76.9903V82.7344L77.3149 82.793H80.3011V82.4414L78.5483 82.3828V82.0898L78.1588 82.0312H77.3149V81.7383L76.471 81.6211H76.0815V81.3281L75.7569 81.2695H75.2376V80.9766L75.1727 80.918L74.3937 80.8594L74.0691 80.8008V80.5664L73.9393 80.5078H73.5498V80.2148L72.7708 80.0977L72.7059 79.8047L71.9269 79.6875L71.862 79.3945L71.4725 79.3359L71.4076 79.043L70.9532 78.9258H70.6286V78.6328L70.2391 78.5742L70.1742 78.2227H69.7198V77.9297L69.3303 77.8125H68.9408V77.5195L68.8758 77.4609H68.4864V77.1094L68.0969 77.0508L68.0319 76.7578L67.3828 76.6406L67.2529 76.3477L67.188 76.2891H66.8635L66.7985 75.9375H66.409V75.5859L66.0195 75.5273L65.9546 75.2344L65.63 75.1758L65.5002 74.8242H65.1107V74.4727L64.7212 74.4141L64.6563 74.0625H64.2668V73.7695L64.2019 73.7109H63.8773L63.8124 73.3594L63.4229 73.2422H63.0983V72.9492L63.0334 72.8906H62.6439V72.5391L62.2544 72.4805L62.1895 72.1289L61.8649 72.0117L61.7351 71.7188H61.4105L61.3456 71.3672H60.9561V71.0156L60.6315 70.957L60.5017 70.6055H60.1771L60.0473 70.1953L59.7876 70.1367L59.6578 69.8438L59.3981 69.7852L59.3332 69.5508L59.2034 69.1992L58.8139 69.082L58.684 68.7891L58.4244 68.7305L58.3595 68.3789H57.97V68.0273L57.5155 67.9688V67.6172L57.191 67.5586L57.0611 67.207H56.7366V66.8555L56.3471 66.7969L56.2821 66.4453H55.8926V66.0938L55.8277 66.0352H55.5032V65.7422L55.1786 65.625L54.9838 65.1562L54.9189 64.9805H54.5943V64.5703L54.2048 64.5117L54.1399 64.1602H53.7504V63.8086L53.4258 63.75L53.296 63.3984L52.9714 63.3398L52.9065 62.6953L52.517 62.6367L52.4521 62.2852H52.0626V61.9336L51.9977 61.875H51.6731V61.5234L51.2836 61.4648L51.2187 61.1133L50.8941 61.0547L50.7643 60.4688L50.4397 60.3516L50.3748 60H49.9853V59.6484L49.5958 59.5312L49.5309 59.1797H49.2063L49.1414 58.8281L49.0116 58.4766H48.687V58.125L48.3624 58.0664L48.2326 57.7148H47.908L47.8431 57.3047L47.5185 57.2461L47.4536 56.9531L47.1939 56.7773L47.3237 56.6602H47.0641L46.9992 56.25L46.6746 56.1914L46.6097 55.8398H46.2202V55.4883L46.1552 55.4297H45.8307L45.7008 54.7266L45.3763 54.668L45.3113 54.3164H44.9218V53.9648L44.8569 53.9062H44.5323L44.4025 53.4961H44.0779V53.1445L44.013 53.0859H43.6884L43.7534 52.8516L43.5586 52.3828H43.2989L43.234 52.0312L42.9094 51.9727L42.7796 51.6211L42.52 51.5625L42.3901 51.1523L42.3252 50.918H42.0006L41.9357 50.5078H41.6111L41.5462 50.0977L41.2216 50.0391L41.1567 49.6875L41.0918 49.3945L40.7672 49.3359L40.7023 48.9844H40.3128L40.2479 48.2227H39.8584V47.8125L39.5338 47.7539L39.4689 47.1094L39.404 47.0508H39.0794L39.0145 46.2891H38.625V45.5859L38.5601 45.5273H38.2355L38.1706 44.707L38.1057 44.4141H37.7811V43.6523L37.7162 43.3008L37.0021 43.2422ZM79.9765 44.7656L79.9116 44.8242V45.7617L79.9765 45.8789H80.2361V44.8242L79.9765 44.7656ZM79.5221 46.6406L79.4572 46.6992V47.9297L79.5221 48.1641L79.8467 48.1055V46.6406H79.5221ZM79.0677 48.2227L79.0027 48.9258V49.6875L79.3922 49.8047L79.4572 49.6875V48.3398L79.3922 48.2227H79.0677ZM78.6782 50.0391L78.6132 50.1562V51.3281L78.6782 51.6211L79.0027 51.5625V50.0977L78.6782 50.0391ZM78.2238 52.0312V53.0859L78.4834 53.1445L78.6132 52.7344L78.5483 52.0312H78.2238ZM30.121 68.3789V68.6133L29.8613 68.4961V68.6719L30.5754 68.7891L30.6403 69.082L31.4842 69.1406V69.4922L32.2632 69.5508L32.3281 69.8438L32.5229 69.7852L32.3931 69.5508L32.5878 69.6094L32.7176 69.9023H33.4966V70.1953L33.951 70.3125H34.3405L34.4055 70.6055L34.73 70.6641H35.1844V70.957L35.2494 71.0156L35.9634 71.0742L36.0284 71.3672L36.8723 71.4258V71.7188L37.3267 71.8359H37.7162V72.1289L38.4952 72.3047L38.5601 72.4805L38.3004 72.5391L39.0145 72.5977L39.0794 72.8906L39.8584 72.9492V73.2422L40.3128 73.3594L40.6374 73.418L40.7023 73.6523L41.1567 73.7695L41.2216 74.0625L41.9357 74.1211L42.0006 74.4141L42.7796 74.4727V74.7656L43.234 74.8828H43.5586L43.6235 75.1758L44.0779 75.2344V75.5273L44.1429 75.5859H44.8569V75.8789L44.9868 75.9961L45.3113 76.0547L45.3763 76.2891L46.1552 76.4062V76.6992H46.6097V77.0508L46.9342 77.1094L47.3887 77.168L47.4536 77.4609L47.908 77.5781H48.2326L48.2975 77.8711H48.687L48.7519 78.2227L49.5309 78.2812V78.6328H49.9853V78.9258L50.4397 79.043L50.7643 79.1016L50.8292 79.3359L51.2187 79.4531L51.5433 79.5117L51.6082 79.7461L52.1275 79.8047V80.0977L52.4521 80.1562H52.9065V80.5078L53.6855 80.625L53.8153 80.918L54.5294 80.9766L54.5943 81.2695L55.0487 81.3867L55.1137 81.6211L55.8926 81.7383L55.9576 81.9727L56.7366 82.0898H57.0611V82.3828L57.1261 82.4414L57.905 82.5L57.97 82.793L58.749 82.8516L58.8788 83.1445L59.9824 83.2617L59.9174 83.3789L59.7227 83.4375V83.4961L60.8263 83.6133H60.9561V83.9062L61.3456 83.9648L62.5141 84.0234L62.4492 84.1406H62.2544V84.2578L62.579 84.3164L63.8773 84.375V84.668L65.8897 84.7852L66.0195 85.0781H66.9284L67.188 85.0195V84.7266L66.409 84.668V84.375L66.0195 84.3164L64.7861 84.2578L64.7212 83.9648L63.4229 83.9062V83.6133L62.5141 83.4961H62.1895V83.2031L61.3456 83.0859L61.2807 82.8516L60.5017 82.7344H60.1771L60.1122 82.4414L59.2683 82.3828V82.0898L59.2034 82.0312L58.4893 81.9727L58.4244 81.6797L57.5805 81.6211V81.3281L57.5155 81.2695L56.8015 81.2109L56.7366 80.918H56.2821V80.5664L55.4382 80.5078V80.2148L54.9838 80.0977H54.5943V79.8047L54.5294 79.7461H53.8153V79.4531L53.3609 79.3359L53.296 79.043L52.517 78.9844V78.6328L51.738 78.5742V78.2812L51.6731 78.2227H51.2187V77.8711L50.4397 77.8125V77.5195L49.9853 77.4023L49.9204 77.1094L49.2063 77.0508L49.0765 76.6992L48.687 76.6406L48.6221 76.4062L48.2326 76.2891H47.908L47.8431 75.9961L47.7781 75.9375H47.3887V75.5859H46.6097V75.2344L46.1552 75.1172L46.0903 74.8828L45.3763 74.7656L45.3113 74.4727L44.5323 74.4141V74.0625H44.0779L44.013 73.7109L43.6884 73.6523H43.234V73.3008L42.8445 73.2422L42.7796 72.9492L42.0006 72.8906V72.5977L41.9357 72.5391L41.2216 72.4805L41.1567 72.1875L41.0269 72.1289H40.6374V71.8945L40.3128 71.7773H39.8584V71.4844L39.404 71.3672H39.0145V71.0156L38.2355 70.957L38.1706 70.6641L37.3267 70.6055V70.3125L37.2618 70.2539L36.5477 70.1953L36.4828 69.9023L35.6389 69.8438V69.5508L35.2494 69.4922H34.4055V69.1992L33.951 69.082H33.172V68.7891L31.9386 68.6719L31.8088 68.3789H30.121ZM89.7139 74.1211L89.8437 74.2383L89.9086 74.1211H89.7139ZM54.2697 81.0938V81.2109L54.4645 81.1523L54.2697 81.0938Z" fill="#173940"/>
<path d="M36.8723 93.1055H40.5725L40.7024 93.1641V93.3398L42.0007 93.457V93.8086H42.7148L42.8446 94.1602L43.2341 94.2188V94.5703H43.6236L43.7534 94.9805L44.0131 95.0391L44.1429 95.7422V96.0938H44.4675V98.0273H44.1429L44.078 98.7891L44.0131 99.082L43.6885 99.1406L43.5587 99.5508H43.2341V99.9023L42.8446 99.9609L42.7797 100.254L42.3253 100.371H42.0007L42.0656 100.605L42.0007 100.664L41.1568 100.723L41.0919 101.016L40.7673 101.074V101.367L41.0919 101.426L41.2217 101.953V102.129L41.5463 102.188L41.6112 102.539L41.9358 102.598L42.0007 103.301H42.3253L42.3902 103.359V103.711L42.7148 103.77L42.8446 104.121V104.473H43.1692L43.2341 104.531L43.299 105.176L43.6236 105.234L43.6885 105.645H44.0131L44.1429 106.289L44.4675 106.348L44.5324 106.758H44.9219L44.9868 107.109L45.3114 107.168L45.3763 107.461L45.7009 107.52V107.871H46.1553L46.2202 107.93V108.223H46.5448L46.6097 108.281V108.633H45.8307L44.9219 108.574L44.9868 108.398H45.3114L44.9219 108.34L42.0007 108.281V107.93L42.3902 107.812L42.3253 107.109L42.0007 107.051L41.9358 106.758V106.348H41.6112L41.5463 106.055V105.645H41.2217L41.0919 105.234V104.883H40.7673L40.7024 104.824L40.6375 104.121H40.3129L40.1831 103.418H39.9234L39.7936 102.949L39.5339 102.891L39.469 102.598V102.188H39.0795L39.0146 101.426H38.6251L38.5602 101.074L37.3267 101.016L37.3917 107.109L37.7162 107.168L37.8461 107.812L38.9496 107.93L39.0146 108.223L38.6251 108.281H33.6265L33.4967 108.105V107.93L34.4055 107.871V107.52L34.7301 107.461L34.8599 106.699H35.1845V95.332H34.8599L34.7301 94.2773L34.016 94.1602L33.9511 93.8672L33.4967 93.75L33.5616 93.457L33.9511 93.3984L36.0284 93.3398L36.4179 93.2812L36.4828 93.1641L36.8723 93.1055ZM37.8461 94.2188L37.7812 94.2773V94.5703H37.3267V99.9023H39.9234L40.248 99.8438V99.5508L41.0919 99.4922V99.1406H41.4814L41.6112 98.6719V98.3789H41.9358L42.0007 97.9688V96.2109L41.9358 95.7422H41.5463V95.332H41.1568V94.9805L41.0919 94.9219H40.7024V94.5703L39.9234 94.5117L39.8585 94.2188H37.8461ZM43.7534 98.8477L43.8183 98.9648L43.8833 98.8477H43.7534ZM39.5988 102.656L39.6637 102.773H39.7936V102.656H39.5988Z" fill="#1B3C43"/>
<path d="M58.0349 92.6953H58.749L58.8139 92.7539L58.8789 93.457L59.2034 93.5742L59.3333 94.5117L59.6578 94.5703V95.332H59.9824L60.0473 95.3906L60.1123 96.1523L60.4368 96.2109L60.5667 97.1484L60.8912 97.207L61.0211 97.9688L61.3457 98.0273L61.4106 98.7305L61.7352 98.7891L61.8001 99.5508H62.1247L62.2545 100.605L62.5791 100.664L62.644 101.426H62.9686L63.0335 101.543V102.188H63.3581L63.423 102.246L63.4879 103.008H63.8125L63.9423 104.004L64.2669 104.062L64.3318 104.824H64.6564L64.7862 105.586L65.1108 105.645V106.348H65.5003L65.5652 106.406L65.6301 107.051L66.0196 107.168L66.0845 107.461L66.4091 107.52L66.474 107.812L67.4478 107.93L67.5127 108.164L67.1881 108.281H62.5791L62.1896 108.223L62.1247 107.93L63.0335 107.871L62.9686 106.406L62.644 106.348L62.5791 105.586H62.2545L62.1896 105.527V104.824H61.8001L61.7352 104.531L54.5944 104.473V105.234H54.2049L54.14 105.996H53.8154L53.7505 106.758L53.6207 107.168H53.4259V107.461L53.7505 107.578V107.871H54.14L54.2049 107.93V108.223L54.14 108.281H49.1414L48.752 108.223L48.8169 107.93L49.1414 107.871H49.9854V107.52L50.3749 107.461L50.4398 107.168L50.7643 107.109L50.8293 106.758H51.2188V106.348H51.6083L51.6732 105.586L51.9978 105.527L52.0627 104.883L52.1276 104.824H52.4522L52.5171 104.004L52.582 103.711H52.9066V103.008L52.9715 102.949H53.2961L53.361 102.188L53.6856 102.129L53.7505 101.426L53.8154 101.367H54.14L54.2049 100.371L54.2698 100.312H54.5944V99.5508H54.9839L55.0488 98.7891L55.3734 98.6719L55.4383 98.0273L55.5032 97.9688H55.8278L55.8927 97.1484L55.9576 96.9141H56.2822V96.4453L56.3471 96.1523L56.6068 96.0938L56.7366 95.332H57.1261V94.6289L57.191 94.5117H57.5156V93.8672L57.6454 93.5156L57.9051 93.457L58.0349 92.6953ZM58.8789 93.6328L58.9438 93.8086L59.1385 93.75L58.8789 93.6328ZM58.0349 96.7969L57.97 96.8555L57.9051 97.6172H57.5805L57.5156 98.4375H57.191L57.1261 98.7305V99.4922H56.8015L56.7366 99.5508L56.6717 100.312H56.3471L56.2173 101.367L55.8927 101.426L55.8278 102.188H55.5032L55.4383 102.949L55.5032 103.008L60.0473 103.066V103.125L59.2683 103.184V103.242L60.8912 103.301L60.9562 102.949V102.188L60.8912 101.777L60.5667 101.719L60.5018 101.016L60.3719 100.957L60.1772 101.016L60.1123 100.312L60.0473 99.9023L59.7228 99.8438L59.6578 99.1406L59.5929 99.082H59.2683L59.2034 98.0273L58.8789 97.9688L58.8139 97.2656L58.4894 97.207L58.4244 96.8555L58.0349 96.7969ZM60.307 100.781L60.4368 100.898V100.781H60.307Z" fill="#1B3C43"/>
<path d="M69.0706 93.3398L73.5498 93.3984V93.8086H73.1603L73.2252 95.2734L73.5498 95.332L73.6147 96.0352L73.9393 96.0938L74.0042 96.8555H74.3288L74.4586 97.6172L74.7832 97.6758L74.8481 98.3203L74.913 98.6719L75.2376 98.7305L75.3025 99.4922H75.6271L75.692 100.254H76.0166L76.0815 100.312L76.1464 100.957L76.471 101.016L76.5359 101.777H76.8605L76.9254 101.836L76.9904 102.539L77.3149 102.598L77.3799 103.359H77.7044L77.7693 104.121H78.1588L78.2238 104.824L78.5483 104.941V105.176L79.0028 105.234V104.59L79.0677 104.414H79.3922L79.4572 103.711H79.7817L79.8467 102.949L79.9116 102.598H80.2362L80.3011 101.836L80.366 101.777H80.6906V101.074L80.7555 101.016H81.0801L81.145 99.9609L81.4696 99.9023L81.5994 99.1406H81.924L81.9889 98.3203L82.0538 98.0273H82.3784V97.2656L82.4433 97.207H82.7679L82.8328 96.0938L83.1574 96.0352L83.2223 95.2734V94.2188H82.8328V93.8086H82.3784V93.5156L82.4433 93.457L86.5979 93.3984L87.0523 93.5156L86.9874 93.8086L86.2084 93.8672V94.2188L85.8189 94.2773L85.754 94.9805L85.4294 95.0391L85.2996 96.0938H84.975L84.9101 96.8555L84.8452 96.9141H84.5206V97.6758L84.4557 98.0273H84.1311L84.0662 98.7891L83.7416 98.8477L83.6767 99.4922L83.5469 99.7852L83.482 99.5508H83.3521L83.2872 99.9609L83.2223 100.605L83.1574 100.664H82.8328V101.367L82.7679 101.426H82.4433L82.3784 102.188H82.0538L81.9889 103.008L81.924 103.301H81.5994L81.5345 104.062L81.4696 104.121H81.145V104.824L81.0801 104.883H80.7555L80.6906 105.645L80.6257 105.938H80.366L80.2362 106.699L79.9765 106.758H79.8467V107.52H79.4572V108.223L79.3922 108.281H79.0677L79.0028 108.984L78.2887 109.043L78.1588 108.691V108.281H77.7693L77.7044 107.578L77.3799 107.52L77.3149 107.227V106.758H76.9254L76.8605 105.996H76.5359L76.471 105.703V105.234H76.0815L76.0166 104.531L75.692 104.473L75.6271 103.711H75.2376L75.1727 103.008L74.8481 102.949L74.7832 102.188H74.4586L74.3937 102.129L74.3288 101.484L74.0042 101.426L73.9393 100.664H73.6147L73.5498 100.605V99.9023H73.1603L73.0954 99.1406H72.7708L72.7059 98.3789H72.3813L72.2515 97.9688V97.6172H71.9269L71.862 97.5586L71.7971 96.8555L71.5374 96.7969L71.4076 96.4453V96.0938H71.083L70.9532 95.3906L70.6286 95.332L70.5637 94.6289H70.1742V94.2188H69.7847L69.7198 94.1602V93.8672L68.9408 93.8086L68.8759 93.75V93.457L69.0706 93.3398Z" fill="#1B3C43"/>
<path d="M12.9183 90L13.7622 90.0586V90.3516H28.8876V90.0586L28.9525 90L29.6666 90.0586L29.7315 90.1172L29.6666 90.8203L29.4069 90.7617L29.342 92.2852H28.9525L28.8876 91.9922L28.4981 91.9336L23.4996 91.875L23.4347 91.7578L23.8242 91.6992L23.6943 91.6406L23.0452 91.582V91.875L22.6557 91.9336V107.109H22.9803L23.0452 107.578L23.3698 107.637V107.754H23.1101V107.812L23.7593 107.871L23.8891 107.93L23.8242 108.281H19.2151L18.8906 108.164V107.93L19.2151 107.871H19.6695V107.578L19.8643 107.52L20.059 107.578V107.109L20.124 106.758H20.4485V91.875L20.124 91.9336L20.059 91.875V91.582L14.1517 91.6406V91.875L13.3727 91.9922L13.3078 92.2852L12.9832 92.3438L12.9183 92.6953H12.5288L12.4639 92.3438L12.5288 91.1719L12.6586 91.1133L12.8534 91.1719V90.3516L12.9183 90ZM24.7979 91.6406V91.6992H25.9664V91.6406H24.7979ZM26.291 91.6406V91.6992H26.6805V91.6406H26.291ZM26.7454 91.6406V91.6992H27.1349V91.6406H26.7454ZM27.6542 91.6406V91.6992H28.0437V91.6406H27.6542Z" fill="#193B42"/>
<path d="M97.7635 93.1055H102.567L102.632 93.3984H103.022V95.3906H102.697L102.632 95.332V94.9805H102.243L102.178 94.9219V94.6289H98.0232V99.4922H102.178L102.308 99.6094L102.567 99.5508V101.367H102.178L102.243 101.074H98.0232L97.9582 106.758H98.3477L98.4127 107.051L98.8022 107.109H102.178L103.022 107.051V106.406L103.346 106.348H103.476V105.996H103.801L103.866 106.055V107.109L103.801 107.168H103.476V108.223L103.411 108.281H94.258L94.1931 108.223V107.93L94.6475 107.812V107.578L94.9721 107.52H95.4265L95.4914 107.109H95.816V94.6289H95.4914L95.3616 94.2188L95.037 94.1602V93.8086H94.1931V93.457L94.5826 93.3984L97.1143 93.3398L97.1793 93.1641L97.7635 93.1055ZM102.308 100.488L102.243 100.664L102.437 100.605L102.308 100.488ZM100.62 100.781V100.84H100.944V100.781H100.62Z" fill="#17383F"/>
<path d="M109.254 93.3984H112.24L113.149 93.457V93.8086L112.759 93.8672V94.1602L112.694 94.2188H111.915V107.109H115.68L116.135 107.051L116.2 106.758H116.914V106.348L117.303 106.289L117.368 105.938H117.693L117.758 105.527L117.822 105.234H118.212V105.938L118.147 106.055H117.887L117.758 107.109L117.563 107.168L117.368 107.109V107.871L116.979 107.93L116.914 108.281L113.603 108.34L112.889 108.398L111.915 108.34L108.085 108.281L107.76 108.223V107.93L108.085 107.871H108.929V107.52L109.318 107.461L109.383 106.699L109.708 106.758V94.6289H109.383L109.318 94.5703V94.2188H108.864L108.539 94.1602L108.475 93.8672L108.085 93.8086V93.457L109.254 93.3984Z" fill="#193B42"/>
<path d="M69.0057 41.3672H69.6549L69.7847 41.7773L69.8496 42.4805L69.9795 42.4219V42.2461H70.1742L70.2391 43.3008L70.5637 43.3594L70.6935 44.8242L70.9532 44.8828L71.0181 45.2344L71.083 47.0508L71.0181 47.6953L70.9532 47.8125L70.304 47.7539L70.1742 47.4609V45.5859H69.8496L69.7847 45.5273L69.7198 44.4141V43.7109L69.3952 43.6523L69.3303 43.2422L69.2654 41.8359L68.9408 41.7773V41.4258L69.0057 41.3672Z" fill="#28474E"/>
<path d="M72.7708 40.2539H73.0954L73.1603 40.5469L73.5498 40.6641V41.0156H73.9393L74.0043 41.3672L74.2639 41.4258L74.3937 41.7188L74.4587 42.1289L74.7832 42.1875L74.8482 42.8906V43.5938L74.7832 43.7109L74.0043 43.6523L73.8744 43.2422L73.6797 43.1836L73.5498 42.8906V42.4805H73.2253L73.0954 41.7188V41.3672L72.7708 41.3086L72.7059 40.957V40.4297L72.7708 40.2539Z" fill="#2A494F"/>
<path d="M97.7636 93.1055H102.567L102.632 93.3984H102.308V93.2812L101.723 93.2227L101.334 93.3398V93.3984H96.8547L97.1144 93.3398L97.1793 93.1641L97.7636 93.1055Z" fill="#28474E"/>
<path d="M55.4382 102.949L60.0473 103.008V103.184L60.3718 103.242V103.301H55.4382V102.949Z" fill="#173940"/>
<path d="M23.7593 91.582H28.4332L28.4981 91.875H23.4996L23.4347 91.7578L23.8242 91.6992L23.7593 91.582ZM24.7979 91.6406V91.6992H25.9664V91.6406H24.7979ZM26.291 91.6406V91.6992H26.6805V91.6406H26.291ZM26.7454 91.6406V91.6992H27.1349V91.6406H26.7454ZM27.6542 91.6406V91.6992H28.0437V91.6406H27.6542Z" fill="#28474E"/>
<path d="M98.0232 100.664H101.334L101.399 100.957V101.016H98.0232V100.664ZM100.62 100.781V100.84H100.944V100.781H100.62Z" fill="#28474E"/>
<path d="M102.372 99.5508H102.567V101.367H102.178L102.243 100.664L102.372 100.547H102.243V99.6094L102.372 99.5508Z" fill="#28474E"/>
<path d="M36.8722 93.1055H38.625V93.1641H37.7811L37.846 93.3398L37.7811 93.3984H36.0283V93.3398L36.4178 93.2812L36.4827 93.1641L36.8722 93.1055Z" fill="#28474E"/>
<path d="M63.8774 28.1836L63.9423 28.3594L64.2019 28.418L64.2669 28.8281H63.4879L63.358 28.7109L63.4879 28.4766H63.8774V28.1836Z" fill="#28474E"/>
<path d="M74.8481 24.668H75.1727L75.2376 25.3711H74.8481V24.668Z" fill="#28474E"/>
<path d="M63.5527 8.37891H65.1107V8.4375L64.5265 8.55469V8.61328H63.8773L63.8124 8.49609L63.5527 8.37891Z" fill="#28474E"/>
<path d="M69.7198 21.2695H70.5638V21.5625H70.1743V21.3867L69.7848 21.4453L69.3953 21.3867V21.3281L69.7198 21.2695Z" fill="#28474E"/>
<path d="M45.1815 108.281H45.8307L45.7658 108.574H44.9219L44.9868 108.398H45.3114L45.1815 108.281Z" fill="#28474E"/>
<path d="M56.8015 34.9805H57.0612V35.6836H56.8015V34.9805Z" fill="#28474E"/>
<path d="M39.9233 93.1055H40.5725L40.7023 93.1641V93.3984H40.1181L39.9233 93.2812H40.2479V93.1641H39.9233V93.1055Z" fill="#28474E"/>
<path d="M20.838 43.3594H20.9029V43.8867L20.7082 44.4141H20.5784V44.0039L20.7082 43.6523L20.838 43.3594Z" fill="#28474E"/>
<path d="M59.7227 86.6016L60.5016 86.6602V86.9531L60.0472 86.8945V86.6602H59.7227V86.6016Z" fill="#28474E"/>
<path d="M84.0662 23.9062H84.4557L84.5206 23.9648V24.2578H84.1311L84.0662 23.9648V23.9062Z" fill="#28474E"/>
<path d="M29.6666 90.1172H29.7316L29.6666 90.8203L29.407 90.7617V90.3516H29.6017L29.6666 90.1172Z" fill="#28474E"/>
<path d="M84.5206 48.9844H84.5855V49.3359L84.8452 49.3945V49.6875H84.5206V48.9844Z" fill="#28474E"/>
<path d="M23.0452 44.0039H23.3697V44.4141H23.0452V44.0039Z" fill="#28474E"/>
<path d="M84.3259 37.1484H84.4557V37.5586H84.1311V37.207L84.3259 37.1484Z" fill="#173940"/>
<path d="M74.8481 24.668H75.1727V25.0781H74.8481V24.668Z" fill="#28474E"/>
<path d="M55.4382 22.0312H55.8926L55.9576 22.1484L55.8926 22.3242H55.5031L55.4382 22.0312Z" fill="#28474E"/>
<path d="M19.7345 107.52L20.0591 107.637V107.871H19.6696V107.578L19.7345 107.52Z" fill="#28474E"/>
<path d="M12.5937 91.1133L12.8534 91.1719V91.5234H12.5288V91.1719L12.5937 91.1133Z" fill="#173940"/>
<path d="M45.2465 41.7188H45.3114V42.1289H44.9868V41.7773L45.2465 41.7188Z" fill="#173940"/>
<path d="M85.8189 35.332H86.1435V35.6836H85.754L85.8189 35.332Z" fill="#173940"/>
<path d="M69.7197 6.44531H70.1741V6.73828H69.7846L69.7197 6.44531Z" fill="#173940"/>
<path d="M98.0232 106.758H98.3478L98.4127 107.109H98.0232V106.758Z" fill="#173940"/>
<path d="M20.1239 106.758H20.4485V107.109H20.1239V106.758Z" fill="#28474E"/>
<path d="M54.2697 100.312H54.5943V100.605L54.2048 100.664V100.371L54.2697 100.312Z" fill="#28474E"/>
<path d="M34.8599 94.9805H35.1844V95.332H34.8599V94.9805Z" fill="#28474E"/>
<path d="M20.0591 91.582H20.2538H20.4486V91.875L20.124 91.9336L20.0591 91.875V91.582Z" fill="#28474E"/>
<path d="M107.696 42.5391H108.02V42.8906H107.696V42.5391Z" fill="#28474E"/>
<path d="M71.4725 23.5547H71.862V23.8477H71.4725V23.5547Z" fill="#28474E"/>
<path d="M79.5221 18.2227H79.9116L79.8466 18.5156H79.4572L79.5221 18.2227Z" fill="#28474E"/>
<path d="M48.8169 107.93H49.1414V108.223H48.752L48.8169 107.93Z" fill="#28474E"/>
<path d="M52.582 103.711H52.9066V104.062H52.5171L52.582 103.711Z" fill="#28474E"/>
<path d="M98.4775 72.5391H98.7372V72.8906H98.4126V72.5977L98.4775 72.5391Z" fill="#28474E"/>
<path d="M107.761 53.2031H108.02V53.5547H107.696V53.2617L107.761 53.2031Z" fill="#28474E"/>
<path d="M21.0328 41.0156H21.2925V41.3672H20.9679V41.0742L21.0328 41.0156Z" fill="#28474E"/>
<path d="M45.4411 39.4922H45.7008V39.8438H45.3762V39.5508L45.4411 39.4922Z" fill="#28474E"/>
<path d="M70.6287 31.5234H71.0182V31.8164H70.6287V31.5234Z" fill="#28474E"/>
<path d="M66.0195 31.5234H66.409V31.8164H66.0844L66.0195 31.5234Z" fill="#28474E"/>
<path d="M65.5652 30.4102H65.9547V30.7031H65.5652V30.4102Z" fill="#28474E"/>
<path d="M76.0166 19.3359L76.471 19.3945L76.4061 19.6289L76.0815 19.6875L76.0166 19.3359Z" fill="#28474E"/>
<path d="M50.9591 44.0625L51.2187 44.1211V44.4141H50.8942V44.1211L50.9591 44.0625Z" fill="#28474E"/>
<path d="M46.2851 37.207L46.5448 37.2656V37.5586H46.2202V37.2656L46.2851 37.207Z" fill="#28474E"/>
<path d="M104.385 31.1719H104.709V31.4648H104.32L104.385 31.1719Z" fill="#28474E"/>
<path d="M55.0487 25.0781H55.4382V25.3711H55.0487V25.0781Z" fill="#28474E"/>
<path d="M57.905 93.457H57.9699V93.75L57.905 93.8086H57.5804L57.6454 93.5156L57.905 93.457Z" fill="#28474E"/>
<path d="M13.7622 91.582H14.1517V91.875H13.7622V91.582Z" fill="#28474E"/>
<path d="M61.3456 75.2344L61.6702 75.293L61.7351 75.5859H61.4105L61.3456 75.5273V75.2344Z" fill="#28474E"/>
<path d="M106.917 57.3633H107.176V57.6562L106.852 57.7148V57.4219L106.917 57.3633Z" fill="#28474E"/>
<path d="M21.4872 55.4297L21.7468 55.4883V55.7812H21.4222V55.4883L21.4872 55.4297Z" fill="#28474E"/>
<path d="M38.2355 38.7305H38.5601V39.0234L38.2355 39.082V38.7305Z" fill="#28474E"/>
<path d="M38.625 34.2188H38.9496L39.0145 34.4531L38.9496 34.5117H38.625V34.2188Z" fill="#28474E"/>
<path d="M71.0181 30.4102H71.4076V30.7031H71.083L71.0181 30.4102Z" fill="#28474E"/>
<path d="M60.1122 24.7266H60.4368L60.5017 24.9609L60.4368 25.0195H60.1122V24.7266Z" fill="#28474E"/>
<path d="M42.0006 106.758H42.3252V107.051L42.0655 107.109L42.0006 107.051V106.758Z" fill="#28474E"/>
<path d="M55.9576 96.9141H56.2822V97.207H55.8927L55.9576 96.9141Z" fill="#28474E"/>
<path d="M71.4725 96.5039H71.7971L71.862 96.5625V96.8555L71.5375 96.7969L71.4725 96.5039Z" fill="#28474E"/>
<path d="M43.6885 94.9805L44.0131 95.0391V95.332H43.6885V94.9805Z" fill="#28474E"/>
<path d="M74.0043 81.7383H74.3289L74.3938 82.0312H74.0043V81.7383Z" fill="#28474E"/>
<path d="M106.397 58.8867H106.787L106.722 59.1797H106.397V58.8867Z" fill="#28474E"/>
<path d="M20.5784 49.7461H20.838V50.0977L20.5784 50.1562V49.7461Z" fill="#28474E"/>
<path d="M92.1158 45.5859L92.4404 45.6445V45.9375H92.1158V45.5859Z" fill="#28474E"/>
<path d="M39.0795 44.4141L39.404 44.4727V44.7656H39.0795V44.4141Z" fill="#28474E"/>
<path d="M73.1603 42.1875H73.5498V42.4805H73.2252L73.1603 42.1875Z" fill="#173940"/>
<path d="M23.7593 40.957L23.8242 41.0742L23.7593 41.3672H23.4996V41.0156L23.7593 40.957Z" fill="#28474E"/>
<path d="M72.3164 31.875H72.641L72.7059 32.1094L72.641 32.168H72.3164V31.875Z" fill="#28474E"/>
<path d="M54.2048 19.3945H54.5943L54.5294 19.6875H54.2048V19.3945Z" fill="#28474E"/>
<path d="M79.4572 8.73047H79.7817L79.8466 9.02344H79.4572V8.73047Z" fill="#28474E"/>
<path d="M51.2837 7.96875H51.6082V8.26172H51.2188L51.2837 7.96875Z" fill="#28474E"/>
<path d="M58.4244 6.44531H58.8139L58.749 6.5625L58.8139 6.73828H58.4244L58.3595 6.50391L58.4244 6.44531Z" fill="#173940"/>
<path d="M115.226 108.457H115.68L115.745 108.574H114.836V108.516L115.226 108.457Z" fill="#28474E"/>
<path d="M101.853 99.1992H102.113V99.375H101.853V99.1992Z" fill="#28474E"/>
<path d="M69.0057 93.1641H69.3303L69.2654 93.2814H69.0057V93.1641Z" fill="#28474E"/>
<path d="M39.9233 103.535L40.183 103.594L39.9233 103.652V103.535Z" fill="#28474E"/>
<path d="M96.4003 93.1641H96.7248L96.595 93.2814L96.4003 93.1641Z" fill="#28474E"/>
<path d="M41.741 108.34H41.9357V108.457L41.741 108.399V108.34Z" fill="#28474E"/>
<path d="M118.017 106.172L118.147 106.289H117.952L118.017 106.172Z" fill="#28474E"/>
<path d="M41.2866 73.7695H41.4165L41.3515 73.9453L41.2866 73.7695Z" fill="#28474E"/>
<path d="M101.464 39.5508H101.658V39.6681L101.464 39.6094V39.5508Z" fill="#28474E"/>
<path d="M24.7979 29.707L24.9926 29.7657L24.7979 29.8244V29.707Z" fill="#28474E"/>
<path d="M61.865 44.9414L61.9948 45.0587H61.865V44.9414Z" fill="#28474E"/>
<path d="M85.8839 39.2578L86.0137 39.3751H85.8839V39.2578Z" fill="#28474E"/>
</svg>
