<svg width="250" height="250" viewBox="0 0 250 250" fill="none" xmlns="http://www.w3.org/2000/svg">
<rect width="250" height="250" fill="#1E1E1E"/>
<rect width="250" height="250" fill="#F2F1ED"/>
<path d="M25.597 161.736L39.3299 154.786L42.448 160.948C42.9939 162.026 43.2376 162.971 43.1792 163.783C43.1278 164.608 42.8885 165.302 42.4615 165.866C42.0483 166.422 41.5651 166.84 41.0119 167.12C40.1268 167.568 39.3477 167.728 38.6747 167.6C38.0155 167.464 37.4528 167.211 36.9866 166.838C37.0581 167.289 37.0535 167.777 36.9729 168.305C36.9131 168.839 36.7215 169.353 36.3981 169.846C36.0747 170.34 35.5672 170.762 34.8758 171.112C33.8524 171.63 32.7954 171.67 31.705 171.231C30.6216 170.807 29.6844 169.813 28.8935 168.25L25.597 161.736ZM33.9769 159.45L36.3076 164.055C36.5526 164.539 36.863 164.947 37.2389 165.278C37.6219 165.622 38.0527 165.839 38.5314 165.926C39.024 166.007 39.5468 165.908 40.1 165.628C40.4872 165.432 40.8082 165.156 41.063 164.801C41.3248 164.461 41.4683 164.04 41.4936 163.541C41.5259 163.056 41.3811 162.495 41.0591 161.859L38.6445 157.088L33.9769 159.45ZM27.8573 162.547L30.4504 167.671C30.9263 168.611 31.4874 169.239 32.1336 169.555C32.8006 169.878 33.4937 169.857 34.2128 169.493C34.8628 169.164 35.3039 168.628 35.536 167.885C35.7819 167.135 35.6283 166.214 35.0754 165.122L32.5663 160.164L27.8573 162.547Z" fill="black"/>
<path d="M36.1636 180.49L48.2896 171.011L55.263 179.931L53.9442 180.962L48.0447 173.416L43.9783 176.594L49.2477 183.335L47.9106 184.381L42.6411 177.64L38.5564 180.833L44.4559 188.38L43.137 189.411L36.1636 180.49Z" fill="black"/>
<path d="M52.9612 199.066L56.9654 194.476L58.2079 183.218L59.8023 184.609L58.8057 193.674L67.6516 191.456L69.246 192.847L58.2794 195.622L54.2752 200.212L52.9612 199.066Z" fill="black"/>
<path d="M71.2926 212.387C70.2793 211.818 69.4527 211.122 68.8126 210.299C68.1725 209.477 67.727 208.577 67.4762 207.6C67.2388 206.631 67.1897 205.643 67.329 204.637C67.4758 203.617 67.8151 202.634 68.3469 201.688C68.8864 200.729 69.5499 199.928 70.3376 199.287C71.1253 198.645 71.995 198.174 72.9465 197.873C73.9115 197.58 74.9116 197.493 75.9468 197.613C76.982 197.733 78.0062 198.078 79.0194 198.648C80.0327 199.217 80.8594 199.913 81.4994 200.736C82.1395 201.558 82.5782 202.454 82.8156 203.423C83.0665 204.4 83.1223 205.392 82.9831 206.398C82.8438 207.405 82.5045 208.388 81.9651 209.347C81.4332 210.292 80.7697 211.093 79.9744 211.748C79.1867 212.39 78.3103 212.857 77.3453 213.151C76.3937 213.451 75.4004 213.542 74.3652 213.422C73.33 213.302 72.3058 212.957 71.2926 212.387ZM72.1245 210.908C73.2188 211.523 74.2908 211.815 75.3403 211.783C76.4109 211.745 77.3835 211.438 78.2582 210.863C79.154 210.282 79.883 209.492 80.4452 208.492C81.015 207.479 81.3117 206.445 81.3353 205.391C81.3723 204.345 81.1252 203.362 80.5941 202.441C80.084 201.514 79.2818 200.742 78.1875 200.127C77.1067 199.519 76.031 199.234 74.9604 199.272C73.8974 199.297 72.9218 199.593 72.0336 200.16C71.1589 200.736 70.4366 201.53 69.8668 202.543C69.3046 203.543 69.0012 204.572 68.9565 205.632C68.933 206.686 69.183 207.68 69.7066 208.615C70.2377 209.536 71.0437 210.3 72.1245 210.908Z" fill="black"/>
<path d="M86.5669 219.573L91.0019 204.834L92.9388 205.417L98.3131 220.558L102.045 208.157L103.714 208.659L99.2795 223.398L97.3425 222.815L91.9816 207.63L88.2366 220.075L86.5669 219.573Z" fill="black"/>
<path d="M109.524 225.354L110.712 210.009L117.18 210.51C118.091 210.58 118.951 210.826 119.758 211.246C120.581 211.652 121.3 212.212 121.913 212.928C122.526 213.644 122.989 214.489 123.302 215.461C123.616 216.434 123.726 217.523 123.632 218.728C123.539 219.934 123.263 220.993 122.803 221.905C122.344 222.818 121.756 223.581 121.04 224.194C120.324 224.807 119.528 225.259 118.65 225.548C117.789 225.824 116.903 225.926 115.991 225.855L109.524 225.354ZM111.39 223.843L116.049 224.204C117.146 224.289 118.118 224.084 118.965 223.59C119.812 223.096 120.487 222.41 120.99 221.532C121.509 220.655 121.81 219.675 121.894 218.594C121.979 217.496 121.832 216.475 121.455 215.528C121.093 214.583 120.531 213.809 119.769 213.205C119.009 212.587 118.08 212.235 116.983 212.15L112.323 211.789L111.39 223.843Z" fill="black"/>
<path d="M146.498 223.892L143.53 210.475L138.286 211.635L137.929 210.023L150.12 207.327L150.476 208.938L145.232 210.098L148.2 223.515L146.498 223.892Z" fill="black"/>
<path d="M161.553 219.774L155.379 205.675L156.977 204.976L159.718 211.237L167.918 207.647L165.176 201.385L166.774 200.686L172.947 214.785L171.35 215.485L168.599 209.202L160.399 212.792L163.15 219.075L161.553 219.774Z" fill="black"/>
<path d="M181.799 209.765L172.948 197.174L182.211 190.662L183.174 192.032L175.337 197.54L178.305 201.763L185.305 196.843L186.281 198.231L179.281 203.152L182.263 207.393L190.1 201.884L191.062 203.254L181.799 209.765Z" fill="black"/>
<path d="M205.333 189.513L193.642 179.502L194.776 178.178L206.467 188.188L205.333 189.513Z" fill="black"/>
<path d="M214.814 176.966L203.195 169.631L200.328 174.173L198.932 173.292L205.597 162.734L206.993 163.615L204.126 168.157L215.745 175.491L214.814 176.966Z" fill="black"/>
<path d="M222.257 163.392L208.191 157.143L208.899 155.549L222.965 161.798L222.257 163.392Z" fill="black"/>
<path d="M226.847 152.341L211.946 148.487L212.452 146.528L227.371 140.565L214.833 137.322L215.27 135.634L230.171 139.488L229.664 141.446L214.701 147.398L227.283 150.652L226.847 152.341Z" fill="black"/>
<path d="M231.674 129.196L216.3 128.456L216.845 117.147L218.517 117.227L218.056 126.795L223.212 127.043L223.623 118.497L225.318 118.579L224.907 127.125L230.086 127.374L230.546 117.806L232.218 117.887L231.674 129.196Z" fill="black"/>
<path d="M231.785 108.723L216.56 110.976L215.481 103.685C215.249 102.121 215.495 100.816 216.217 99.7686C216.938 98.7062 218.026 98.0672 219.483 97.8517C220.464 97.7065 221.274 97.7824 221.914 98.0795C222.551 98.3613 223.065 98.7632 223.455 99.2851C223.831 99.8093 224.129 100.345 224.351 100.892L229.9 95.9811L230.203 98.0281L224.905 102.573L225.688 107.862L231.53 106.998L231.785 108.723ZM224.055 108.104L223.276 102.837C223.194 102.285 223.027 101.738 222.774 101.196C222.522 100.653 222.152 100.222 221.666 99.9024C221.163 99.5695 220.52 99.4609 219.738 99.5767C218.772 99.7196 218.062 100.162 217.607 100.903C217.138 101.646 216.983 102.562 217.144 103.65L217.937 109.009L224.055 108.104Z" fill="black"/>
<path d="M228.317 89.2948L211.621 88.3838L210.878 86.3285L223.131 74.9513L223.788 76.7661L220.23 80.0549L222.823 87.2267L227.661 87.48L228.317 89.2948ZM221.085 87.138L218.95 81.2345L212.955 86.7395L221.085 87.138Z" fill="black"/>
<path d="M219.491 67.6745L206.345 75.6789L202.512 69.3837C201.69 68.0333 201.408 66.7352 201.665 65.4895C201.915 64.2305 202.669 63.2181 203.926 62.4523C204.774 61.9364 205.55 61.6908 206.254 61.7155C206.951 61.7269 207.581 61.8969 208.144 62.2255C208.693 62.5622 209.177 62.9392 209.594 63.3565L212.793 56.6728L213.869 58.4402L210.759 64.6887L213.54 69.2562L218.584 66.1851L219.491 67.6745ZM212.13 70.1147L209.362 65.5671C209.071 65.0905 208.704 64.6516 208.26 64.2504C207.817 63.8492 207.309 63.596 206.736 63.4907C206.143 63.3803 205.508 63.5306 204.833 63.9417C203.999 64.4495 203.517 65.1332 203.387 65.9927C203.244 66.8602 203.459 67.764 204.031 68.7039L206.848 73.331L212.13 70.1147Z" fill="black"/>
<path d="M204.338 46.3923L199.847 50.5084L197.359 61.5572L195.929 59.9975L197.929 51.0996L188.891 52.319L187.462 50.7593L198.669 49.2229L203.16 45.1069L204.338 46.3923Z" fill="black"/>
</svg>
